<?xml version="1.0" encoding="UTF-8"?>
<!DOCTYPE svg PUBLIC "-//W3C//DTD SVG 1.1//EN" "http://www.w3.org/Graphics/SVG/1.1/DTD/svg11.dtd">
<!-- Creator: CorelDRAW 2018 (64-Bit Evaluation Version) -->
<svg xmlns="http://www.w3.org/2000/svg" xml:space="preserve" width="360px" height="240px" version="1.1" style="shape-rendering:geometricPrecision; text-rendering:geometricPrecision; image-rendering:optimizeQuality; fill-rule:evenodd; clip-rule:evenodd"
viewBox="0 0 360 240"
 xmlns:xlink="http://www.w3.org/1999/xlink">
 <defs>
  <style type="text/css">
   <![CDATA[
    .fil27 {fill:#FCE577}
    .fil25 {fill:#F18535}
    .fil26 {fill:#FAD334}
    .fil10 {fill:#553D2F}
    .fil11 {fill:#FEFEFE;fill-rule:nonzero}
    .fil24 {fill:#F9A960;fill-rule:nonzero}
    .fil19 {fill:#F7963B;fill-rule:nonzero}
    .fil22 {fill:#F68E37;fill-rule:nonzero}
    .fil15 {fill:#FBF2BC;fill-rule:nonzero}
    .fil17 {fill:#FCE47B;fill-rule:nonzero}
    .fil13 {fill:#FCE060;fill-rule:nonzero}
    .fil20 {fill:#F7B248;fill-rule:nonzero}
    .fil21 {fill:#F7AD34;fill-rule:nonzero}
    .fil18 {fill:#F18535;fill-rule:nonzero}
    .fil16 {fill:#FAE796;fill-rule:nonzero}
    .fil14 {fill:#FAD334;fill-rule:nonzero}
    .fil28 {fill:#E88637;fill-rule:nonzero}
    .fil1 {fill:#E3AF7C;fill-rule:nonzero}
    .fil0 {fill:#DA9960;fill-rule:nonzero}
    .fil3 {fill:#CB874B;fill-rule:nonzero}
    .fil2 {fill:#CFB792;fill-rule:nonzero}
    .fil7 {fill:#7E5434;fill-rule:nonzero}
    .fil5 {fill:#664630;fill-rule:nonzero}
    .fil9 {fill:#7F664A;fill-rule:nonzero}
    .fil8 {fill:#553D2F;fill-rule:nonzero}
    .fil6 {fill:#847E6D;fill-rule:nonzero}
    .fil12 {fill:#48954E;fill-rule:nonzero}
    .fil23 {fill:#1A1A1A;fill-rule:nonzero}
    .fil4 {fill:#333333;fill-rule:nonzero}
   ]]>
  </style>
 </defs>
 <g id="Layer_x0020_1">
  <metadata id="CorelCorpID_0Corel-Layer"/>
  <path class="fil0" d="M150.595 55.745c6.182,21.805 -54.318,4.653 -75.061,99.696 -9.987,45.737 22.785,78.012 89.01,78.785 66.224,0.771 100.394,-42.302 88.577,-87.272 -13.089,-49.8 -61.5,-74.064 -78.604,-82.927 -6.953,-13.596 13.774,-27.215 16.492,-37.876 1.434,-5.626 -3.897,-3.976 -9.507,-2.326 -5.02,1.477 -10.263,2.952 -11.09,-0.779 -1.753,-7.91 -5.465,-27.928 -25.251,-10.996 -19.787,16.931 -9.223,20.607 -1.774,29.426 7.453,8.823 6.847,13.001 7.208,14.269z"/>
  <path class="fil1" d="M139.702 22.613c2.422,-2.456 14.079,-10.445 13.942,-7.391 -0.137,3.051 -0.424,21.427 2.122,22.955 1.306,-9.067 7.163,-27.225 5.35,-28.856 -1.815,-1.634 -9.935,-3.379 -21.414,13.292z"/>
  <path class="fil1" d="M96.707 174.049c1.037,17.792 59.298,44.06 98.448,25.035 39.152,-19.027 38.311,-59.533 20.748,-71.107 -10.807,-3.647 -6.023,50.985 -51.605,52.019 -45.581,1.034 -66.641,-11.623 -67.591,-5.947z"/>
  <path class="fil2" d="M174.858 51.07c-0.003,-0.003 -0.006,-0.007 -0.007,-0.009 1.817,-3.972 4.799,-7.863 7.727,-11.591 -2.926,3.731 -5.905,7.623 -7.72,11.6zm-31.491 -9.618c-0.001,-0.002 -0.003,-0.003 -0.004,-0.005 0.001,0.002 0.003,0.003 0.004,0.005z"/>
  <path class="fil3" d="M174.851 51.061c-1.034,-1.338 -3.027,-2.529 -5.611,-3.37 5.864,-4.078 16.941,-13.75 21.273,-20.045 -1.434,3.662 -4.651,7.641 -7.935,11.824 -2.928,3.728 -5.91,7.619 -7.727,11.591zm-26.325 -2.172c-1.027,-1.987 -2.624,-4.435 -5.139,-7.413l0 0c-0.007,-0.009 -0.013,-0.016 -0.02,-0.024 -0.001,-0.002 -0.003,-0.003 -0.004,-0.005 -5.558,-6.566 -12.821,-10.287 -7.934,-18.782 1.368,9.251 15.352,19.687 19.161,24.326 -1.503,0.296 -3.009,0.71 -4.493,1.26 0.002,0 0.002,0 0.003,-0.002 -0.087,0.033 -0.173,0.065 -0.258,0.098 -0.442,0.169 -0.88,0.348 -1.316,0.542z"/>
  <path class="fil2" d="M172.253 25.15c-0.934,-0.32 -1.59,-0.973 -1.841,-2.104 0.251,1.131 0.908,1.784 1.841,2.104zm-1.841 -2.104c-0.822,-3.707 -2.075,-10.072 -5.209,-14.048 0,-0.002 0,-0.002 0,-0.002 3.135,3.978 4.387,10.343 5.209,14.05z"/>
  <path class="fil3" d="M166.933 39.913c-0.322,0 -0.631,-0.06 -0.923,-0.187 -5.058,-2.212 0.157,-21.438 -0.807,-30.728 3.134,3.976 4.387,10.341 5.209,14.048l0 0c0.251,1.131 0.907,1.784 1.841,2.104 0.506,0.172 1.094,0.248 1.743,0.248 3.871,0 9.908,-2.674 13.717,-3.09 -7.015,2.891 -15.732,17.607 -20.78,17.605z"/>
  <path class="fil3" d="M166.292 234.235c-0.576,0 -1.166,-0.003 -1.748,-0.009l0 0c-65.489,-0.766 -98.237,-32.344 -89.299,-77.274 -0.489,22.508 21.502,43.869 45.342,49.64 13.143,3.181 28.305,5.104 42.723,5.104 18.737,0 36.218,-3.248 46.355,-11.199 35.698,-27.999 28.19,-54.479 13.673,-78.016 -15.054,-24.41 -46.179,-56.999 -63.798,-56.999 -0.15,0 -0.299,0.001 -0.447,0.006 -4.479,0.142 -9.266,0.599 -13.91,1.201 0.616,-0.376 1.19,-0.754 1.719,-1.141 4.062,-1.714 10.401,-2.637 16.326,-2.639 0.004,0 0.008,0 0.013,0 0.002,0 0.004,0 0.006,0 4.258,0.002 8.303,0.479 11.134,1.477 0.013,0.004 0.024,0.009 0.036,0.012 0.019,0.008 0.038,0.014 0.057,0.022l0 0c0.496,0.178 1.008,0.302 1.524,0.374 18.262,9.452 64.394,33.732 77.123,82.16 1.544,5.877 2.303,11.721 2.307,17.439 0.032,37.655 -32.632,69.846 -89.136,69.842z"/>
  <path class="fil4" d="M153.121 55.036c2.768,9.762 -4.018,12.989 -14.875,18.149 -17.413,8.277 -46.941,22.314 -60.144,82.811 -1.09,4.992 -1.655,9.783 -1.709,14.348 -0.166,14.263 4.59,26.686 13.882,36.516 9.4,9.943 23.474,17.299 41.836,21.309 9.69,2.116 20.528,3.298 32.454,3.437 12.112,0.141 23.124,-1.212 32.946,-3.794 17.651,-4.637 31.427,-13.243 40.811,-24.248 9.318,-10.926 14.318,-24.239 14.483,-38.381 0.066,-5.739 -0.662,-11.627 -2.222,-17.561 -12.558,-47.786 -58.737,-71.676 -76.324,-80.775l-0.944 -0.488c-0.571,-0.294 -0.987,-0.767 -1.217,-1.316 -5.03,-10.11 2.3,-19.425 8.988,-27.923 3.356,-4.265 6.529,-8.296 7.375,-11.616 0.129,-0.506 0.864,-0.518 0.602,-0.584 -1.066,-0.272 -3.762,0.522 -6.564,1.347l-0.257 0.075c-2.66,0.783 -5.388,1.566 -7.754,1.666 -3.345,0.142 -5.863,-0.922 -6.634,-4.397l-0.002 -0.012 -0.008 0.002 -0.152 -0.691c-0.8,-3.65 -2.059,-9.393 -4.8,-12.597 -2.667,-3.117 -7.375,-3.673 -16.026,3.73 -12.135,10.383 -11.534,14.702 -8.107,18.707 0.828,0.968 1.811,1.957 2.835,2.989 1.25,1.259 2.559,2.577 3.797,4.042 6.834,8.092 7.421,12.769 7.684,14.865l0.046 0.39zm-17.114 13.403c8.383,-3.984 13.623,-6.476 12.061,-11.985 -0.114,-0.4 -0.157,-0.739 -0.211,-1.171 -0.203,-1.617 -0.656,-5.226 -6.473,-12.112 -1.129,-1.339 -2.347,-2.564 -3.509,-3.734 -1.102,-1.111 -2.161,-2.177 -3.102,-3.277 -5.437,-6.354 -6.927,-12.747 8.683,-26.102 11.758,-10.063 18.909,-8.427 23.421,-3.155 3.61,4.218 5.041,10.747 5.951,14.897l0.152 0.691 -0.008 0.001c0.07,0.246 0.583,0.307 1.31,0.277 1.716,-0.073 4.122,-0.766 6.48,-1.46l0.258 -0.076c3.515,-1.035 6.898,-2.031 9.338,-1.408 2.877,0.733 4.275,2.747 3.198,6.973 -1.12,4.393 -4.629,8.852 -8.341,13.568 -5.547,7.048 -11.611,14.753 -8.703,21.74l0.15 0.077c18.161,9.396 65.845,34.065 78.996,84.104 1.675,6.375 2.458,12.725 2.386,18.937 -0.18,15.398 -5.612,29.879 -15.736,41.75 -10.056,11.792 -24.732,20.991 -43.461,25.913 -10.247,2.692 -21.72,4.105 -34.324,3.958 -12.35,-0.144 -23.544,-1.362 -33.521,-3.54 -19.424,-4.242 -34.416,-12.132 -44.549,-22.851 -10.239,-10.833 -15.481,-24.493 -15.299,-40.151 0.058,-4.982 0.658,-10.13 1.812,-15.416 13.754,-63.019 44.757,-77.757 63.041,-86.448z"/>
  <path class="fil2" d="M140.309 66.689c0.689,-0.421 1.333,-0.844 1.925,-1.278 0.003,0 0.008,-0.001 0.009,-0.003 -0.594,0.434 -1.238,0.859 -1.931,1.281 -0.001,0 -0.001,0 -0.003,0z"/>
  <path class="fil5" d="M174.51 51.209c-0.458,-6.015 -18.672,-11.124 -32.762,-3.37 -14.097,7.753 2.413,13.266 7.365,9.986 4.951,-3.282 25.397,-6.616 25.397,-6.616z"/>
  <path class="fil6" d="M174.444 50.769l0 0c-0.029,-0.136 -0.067,-0.27 -0.116,-0.404 0.049,0.134 0.087,0.268 0.116,0.404zm-32.696 -2.93c0.713,-0.393 1.439,-0.752 2.17,-1.08 -0.731,0.328 -1.457,0.688 -2.17,1.08z"/>
  <path class="fil7" d="M145.545 46.085c0.097,-0.037 0.193,-0.074 0.29,-0.11 -0.001,0.001 -0.001,0.001 -0.003,0.001 -0.095,0.035 -0.192,0.072 -0.287,0.109z"/>
  <path class="fil8" d="M145.051 58.791c-4.039,0 -8.878,-1.954 -8.873,-4.987 0.001,-1.7 1.526,-3.74 5.57,-5.965l0 0c0.713,-0.392 1.439,-0.752 2.17,-1.08 0.538,-0.242 1.081,-0.464 1.627,-0.674 0.095,-0.037 0.192,-0.074 0.287,-0.109 -5.418,3.049 -2.456,6.366 2.293,6.366 0.701,0 1.441,-0.072 2.199,-0.227 6.227,-1.287 12.894,-3.865 17.237,-4.157 1.789,-0.122 2.458,-0.76 2.31,-1.6 2.321,1.115 3.929,2.514 4.457,4.007 0.049,0.134 0.087,0.268 0.116,0.404 -1.939,-0.459 -3.938,-0.666 -5.951,-0.666 -8.97,0 -18.164,4.133 -23.122,8.683 -0.106,0.003 -0.212,0.005 -0.32,0.005z"/>
  <path class="fil5" d="M141.696 65.649c-1.125,-7.433 20.463,-20.084 35.884,-13.891 14.578,5.856 3.396,15.181 -4.364,12.383 -7.752,-2.796 -23.829,-2.028 -31.52,1.508z"/>
  <path class="fil6" d="M141.692 65.631c-0.001,-0.006 -0.001,-0.011 -0.003,-0.016 0.002,0.005 0.002,0.01 0.003,0.016zm-0.003 -0.016c-0.05,-0.361 -0.047,-0.731 0.003,-1.111 -0.05,0.38 -0.053,0.75 -0.003,1.111zm0.201 -0.054c0.114,-0.05 0.228,-0.101 0.344,-0.15l0 0c-0.116,0.049 -0.23,0.1 -0.344,0.15z"/>
  <path class="fil9" d="M142.234 65.411l0 0c0.003,0 0.008,-0.001 0.009,-0.003l0 0c-0.001,0.002 -0.006,0.003 -0.009,0.003z"/>
  <path class="fil7" d="M142.243 65.408l0 0c4.565,-1.928 11.683,-2.963 18.34,-2.965 -6.656,0.002 -13.776,1.039 -18.34,2.965z"/>
  <path class="fil6" d="M176.244 64.651c-0.001,0 -0.001,0 -0.003,0 0.002,0 0.002,0 0.003,0l0 0zm0.02 0c7.053,-0.015 13.908,-7.62 1.699,-12.736 12.21,5.117 5.356,12.722 -1.699,12.736zm-34.57 -0.157c0,-0.003 0,-0.006 0.002,-0.009 -0.002,0.003 -0.002,0.006 -0.002,0.009zm0.003 -0.024c0,0 0,-0.002 0,-0.003 0,0.001 0,0.001 0,0.003z"/>
  <path class="fil6" d="M177.94 51.905c-0.052,-0.023 -0.106,-0.044 -0.162,-0.067 0.056,0.023 0.11,0.044 0.162,0.067zm-0.299 -0.123c-0.02,-0.007 -0.042,-0.016 -0.061,-0.024 0.019,0.008 0.041,0.017 0.061,0.024zm-0.061 -0.024c-0.597,-0.24 -1.202,-0.451 -1.814,-0.636 0.612,0.183 1.218,0.394 1.814,0.636z"/>
  <path class="fil8" d="M141.696 65.649l0 0c-0.002,-0.005 -0.002,-0.011 -0.004,-0.018 -0.001,-0.006 -0.001,-0.011 -0.003,-0.016l0 0c-0.05,-0.361 -0.047,-0.731 0.003,-1.111 0,-0.004 0.002,-0.007 0.002,-0.01 0,-0.003 0,-0.006 0.002,-0.009 0,-0.005 0.001,-0.011 0.001,-0.015 0,-0.002 0,-0.002 0,-0.003 0.483,-3.368 4.828,-7.458 10.785,-10.414l0.159 0.085c-4.365,3.311 -4.055,5.181 -0.408,5.181 0.534,0 1.14,-0.04 1.814,-0.122 3.016,-0.368 8.265,-0.699 12.937,-0.699 3.495,0 6.668,0.185 8.334,0.677 0.26,0.078 0.514,0.113 0.764,0.113 3.227,0 5.238,-6.105 -1.63,-8.515 0.441,0.104 0.88,0.22 1.314,0.349 0.612,0.185 1.217,0.396 1.814,0.636l0 0c0.019,0.008 0.041,0.017 0.061,0.024 0.047,0.019 0.092,0.037 0.137,0.056 0.056,0.023 0.11,0.044 0.162,0.067 0.008,0.004 0.015,0.007 0.023,0.01 12.209,5.116 5.354,12.721 -1.699,12.736 -0.006,0 -0.013,0 -0.02,0 -0.001,0 -0.001,0 -0.003,0 -1.023,0 -2.051,-0.16 -3.025,-0.51l0 0c-0.022,-0.01 -0.043,-0.016 -0.064,-0.025 -0.014,-0.004 -0.026,-0.009 -0.04,-0.014 -3.18,-1.121 -7.724,-1.657 -12.507,-1.659 -0.003,0 -0.005,0 -0.008,0l0 0c-0.005,0 -0.009,0 -0.014,0 -6.657,0.002 -13.775,1.037 -18.34,2.965 -0.001,0.002 -0.006,0.003 -0.009,0.003 -0.116,0.049 -0.23,0.1 -0.344,0.15 -0.065,0.029 -0.13,0.059 -0.194,0.088l0 0z"/>
  <path class="fil10" d="M127.859 125.451l0 14.937 9.199 0c1.187,0 2.256,-0.182 3.202,-0.546 0.938,-0.359 1.807,-0.913 2.601,-1.657l0.009 -0.009c0.768,-0.718 1.341,-1.517 1.719,-2.394 0.377,-0.875 0.567,-1.858 0.567,-2.941 0,-0.994 -0.176,-1.913 -0.527,-2.753 -0.357,-0.861 -0.909,-1.673 -1.647,-2.432 -0.722,-0.743 -1.53,-1.297 -2.414,-1.659 -0.888,-0.365 -1.901,-0.546 -3.038,-0.546l-9.671 0zm-2.438 49.376l-7.233 0c-1.346,0 -2.438,-1.092 -2.438,-2.437l0 -56.297c0,-1.346 1.092,-2.438 2.438,-2.438l19.184 0c2.726,0 5.278,0.461 7.648,1.381 2.376,0.921 4.536,2.295 6.481,4.121 1.954,1.835 3.431,3.905 4.425,6.206 0.818,1.896 1.302,3.917 1.448,6.062l5.437 0c1.245,0 2.271,0.933 2.419,2.137 0.673,-0.474 1.396,-0.91 2.168,-1.31 1.35,-0.698 2.767,-1.221 4.246,-1.566 1.481,-0.346 3.019,-0.519 4.612,-0.519 2.892,0 5.578,0.576 8.055,1.722 2.453,1.137 4.673,2.833 6.657,5.082l0.029 0.034c1.993,2.234 3.494,4.699 4.497,7.391 1.011,2.714 1.519,5.626 1.519,8.73 0,3.131 -0.505,6.055 -1.519,8.769 -1.011,2.711 -2.517,5.177 -4.517,7.384 -1.979,2.247 -4.202,3.942 -6.666,5.083 -2.478,1.148 -5.164,1.723 -8.055,1.723 -1.593,0 -3.131,-0.174 -4.612,-0.519 -1.479,-0.345 -2.898,-0.869 -4.246,-1.565 -0.646,-0.335 -1.258,-0.695 -1.835,-1.082l0 16.454c0,1.346 -1.092,2.438 -2.438,2.438l-7.234 0c-1.346,0 -2.438,-1.092 -2.438,-2.438l0 -14.546 -4.837 0c-0.907,0 -1.699,-0.496 -2.119,-1.232l-14.355 -21.569 -4.283 0 0 20.364c0,1.345 -1.091,2.437 -2.438,2.437zm28.032 -30.597l-0.425 0.52c-1.441,1.708 -3.084,3.117 -4.924,4.221 -0.932,0.558 -1.91,1.037 -2.932,1.436l8.281 11.988 0 -18.165zm21.624 20.375c2.738,0 5.045,-1.041 6.917,-3.122l0.079 -0.084c0.925,-1.023 1.623,-2.199 2.09,-3.519 0.494,-1.393 0.741,-2.979 0.741,-4.754 0,-1.748 -0.247,-3.322 -0.741,-4.714 -0.479,-1.355 -1.204,-2.571 -2.169,-3.643 -0.951,-1.057 -2,-1.845 -3.14,-2.359 -1.129,-0.508 -2.388,-0.762 -3.777,-0.762 -1.424,0 -2.708,0.254 -3.846,0.762 -1.139,0.508 -2.185,1.288 -3.133,2.339 -0.951,1.082 -1.662,2.298 -2.128,3.643 -0.48,1.386 -0.721,2.966 -0.721,4.734 0,1.777 0.244,3.375 0.731,4.793 0.472,1.373 1.179,2.596 2.118,3.663l0.032 0.038c1.861,1.989 4.178,2.985 6.947,2.985z"/>
  <g id="_3055503026480">
   <polygon class="fil11" points="202.553,222.179 251.543,222.179 251.543,204.901 202.553,204.901 "/>
   <polygon class="fil12" points="205.211,222.179 248.884,222.179 248.884,204.901 205.211,204.901 "/>
   <polygon class="fil11" points="212.094,204.9 261.084,204.9 261.084,187.623 212.094,187.623 "/>
   <polygon class="fil12" points="214.752,204.9 258.426,204.9 258.426,187.623 214.752,187.623 "/>
   <path class="fil13" d="M266.045 221.863l0 10.9c0,1.429 -1.164,2.593 -2.608,2.593l-53.761 0c-1.118,0 -2.081,-0.714 -2.439,-1.723 -0.108,-0.264 -0.154,-0.559 -0.154,-0.87l0 -10.9c0,-1.43 1.164,-2.594 2.593,-2.594l53.761 0c0.311,0 0.59,0.047 0.869,0.155l0.325 0.14c0.638,0.311 1.12,0.885 1.306,1.583l0.078 0.343 0.03 0.373z"/>
   <path class="fil14" d="M263.452 235.358l-52.081 0c-1.335,0 -2.419,-1.082 -2.419,-2.42l0 -9.573c0,-1.335 1.084,-2.418 2.419,-2.418l52.251 0c1.337,0 2.42,1.083 2.42,2.418l0 9.404c0,1.431 -1.159,2.589 -2.59,2.589z"/>
   <path class="fil15" d="M216.737 232.593l-1.649 0c-0.438,0 -0.792,-0.354 -0.792,-0.793l0 -10.708c0,-0.438 0.354,-0.794 0.792,-0.794l1.649 0c0.438,0 0.794,0.356 0.794,0.794l0 10.708c0,0.439 -0.356,0.793 -0.794,0.793z"/>
   <path class="fil16" d="M210.268 232.593l-1.652 0c-0.437,0 -0.791,-0.354 -0.791,-0.793l0 -10.708c0,-0.438 0.354,-0.794 0.791,-0.794l1.652 0c0.437,0 0.792,0.356 0.792,0.794l0 10.708c0,0.439 -0.355,0.793 -0.792,0.793z"/>
   <path class="fil15" d="M223.694 232.593l-1.651 0c-0.438,0 -0.792,-0.354 -0.792,-0.793l0 -10.708c0,-0.438 0.354,-0.794 0.792,-0.794l1.651 0c0.437,0 0.792,0.356 0.792,0.794l0 10.708c0,0.439 -0.355,0.793 -0.792,0.793z"/>
   <path class="fil17" d="M230.455 232.593l-1.651 0c-0.438,0 -0.791,-0.354 -0.791,-0.793l0 -10.708c0,-0.438 0.353,-0.794 0.791,-0.794l1.651 0c0.438,0 0.792,0.356 0.792,0.794l0 10.708c0,0.439 -0.354,0.793 -0.792,0.793z"/>
   <path class="fil18" d="M212.918 234.776l-0.725 0c-0.373,0 -0.672,-0.302 -0.672,-0.673l0 -13.553c0,-0.371 0.299,-0.671 0.672,-0.671l0.725 0c0.371,0 0.673,0.3 0.673,0.671l0 13.553c0,0.371 -0.302,0.673 -0.673,0.673z"/>
   <path class="fil19" d="M213.01 234.776l-0.409 0c-0.319,0 -0.578,-0.26 -0.578,-0.582l0 -13.491c0,-0.322 0.259,-0.581 0.578,-0.581l0.409 0c0.32,0 0.581,0.259 0.581,0.581l0 13.491c0,0.322 -0.261,0.582 -0.581,0.582z"/>
   <path class="fil18" d="M219.776 234.776l-0.726 0c-0.371,0 -0.672,-0.302 -0.672,-0.673l0 -13.553c0,-0.371 0.301,-0.671 0.672,-0.671l0.726 0c0.372,0 0.674,0.3 0.674,0.671l0 13.553c0,0.371 -0.302,0.673 -0.674,0.673z"/>
   <path class="fil19" d="M219.869 234.776l-0.408 0c-0.322,0 -0.581,-0.26 -0.581,-0.582l0 -13.491c0,-0.322 0.259,-0.581 0.581,-0.581l0.408 0c0.32,0 0.581,0.259 0.581,0.581l0 13.491c0,0.322 -0.261,0.582 -0.581,0.582z"/>
   <path class="fil18" d="M226.635 234.776l-0.725 0c-0.371,0 -0.672,-0.302 -0.672,-0.673l0 -13.553c0,-0.371 0.301,-0.671 0.672,-0.671l0.725 0c0.371,0 0.672,0.3 0.672,0.671l0 13.553c0,0.371 -0.301,0.673 -0.672,0.673z"/>
   <path class="fil19" d="M226.726 234.776l-0.406 0c-0.322,0 -0.581,-0.26 -0.581,-0.582l0 -13.491c0,-0.322 0.259,-0.581 0.581,-0.581l0.406 0c0.322,0 0.581,0.259 0.581,0.581l0 13.491c0,0.322 -0.259,0.582 -0.581,0.582z"/>
   <path class="fil18" d="M233.494 234.776l-0.725 0c-0.373,0 -0.673,-0.302 -0.673,-0.673l0 -13.553c0,-0.371 0.3,-0.671 0.673,-0.671l0.725 0c0.371,0 0.673,0.3 0.673,0.671l0 13.553c0,0.371 -0.302,0.673 -0.673,0.673z"/>
   <path class="fil19" d="M233.586 234.776l-0.409 0c-0.32,0 -0.581,-0.26 -0.581,-0.582l0 -13.491c0,-0.322 0.261,-0.581 0.581,-0.581l0.409 0c0.321,0 0.581,0.259 0.581,0.581l0 13.491c0,0.322 -0.26,0.582 -0.581,0.582z"/>
   <path class="fil18" d="M240.352 234.776l-0.726 0c-0.371,0 -0.672,-0.302 -0.672,-0.673l0 -13.553c0,-0.371 0.301,-0.671 0.672,-0.671l0.726 0c0.372,0 0.673,0.3 0.673,0.671l0 13.553c0,0.371 -0.301,0.673 -0.673,0.673z"/>
   <path class="fil19" d="M240.444 234.776l-0.407 0c-0.32,0 -0.581,-0.26 -0.581,-0.582l0 -13.491c0,-0.322 0.261,-0.581 0.581,-0.581l0.407 0c0.32,0 0.581,0.259 0.581,0.581l0 13.491c0,0.322 -0.261,0.582 -0.581,0.582z"/>
   <path class="fil18" d="M247.211 234.776l-0.726 0c-0.371,0 -0.672,-0.302 -0.672,-0.673l0 -13.553c0,-0.371 0.301,-0.671 0.672,-0.671l0.726 0c0.371,0 0.672,0.3 0.672,0.671l0 13.553c0,0.371 -0.301,0.673 -0.672,0.673z"/>
   <path class="fil19" d="M247.302 234.776l-0.407 0c-0.321,0 -0.581,-0.26 -0.581,-0.582l0 -13.491c0,-0.322 0.26,-0.581 0.581,-0.581l0.407 0c0.322,0 0.581,0.259 0.581,0.581l0 13.491c0,0.322 -0.259,0.582 -0.581,0.582z"/>
   <path class="fil18" d="M254.07 234.776l-0.725 0c-0.373,0 -0.673,-0.302 -0.673,-0.673l0 -13.553c0,-0.371 0.3,-0.671 0.673,-0.671l0.725 0c0.371,0 0.672,0.3 0.672,0.671l0 13.553c0,0.371 -0.301,0.673 -0.672,0.673z"/>
   <path class="fil19" d="M254.161 234.776l-0.408 0c-0.319,0 -0.579,-0.26 -0.579,-0.582l0 -13.491c0,-0.322 0.26,-0.581 0.579,-0.581l0.408 0c0.32,0 0.581,0.259 0.581,0.581l0 13.491c0,0.322 -0.261,0.582 -0.581,0.582z"/>
   <path class="fil18" d="M260.928 234.776l-0.726 0c-0.371,0 -0.672,-0.302 -0.672,-0.673l0 -13.553c0,-0.371 0.301,-0.671 0.672,-0.671l0.726 0c0.372,0 0.673,0.3 0.673,0.671l0 13.553c0,0.371 -0.301,0.673 -0.673,0.673z"/>
   <path class="fil19" d="M261.02 234.776l-0.408 0c-0.322,0 -0.581,-0.26 -0.581,-0.582l0 -13.491c0,-0.322 0.259,-0.581 0.581,-0.581l0.408 0c0.32,0 0.581,0.259 0.581,0.581l0 13.491c0,0.322 -0.261,0.582 -0.581,0.582z"/>
   <path class="fil20" d="M209.676 235.356l1.59 0c-1.049,-0.045 -1.924,-0.757 -2.213,-1.723l-1.816 0c0.358,1.009 1.321,1.723 2.439,1.723zm53.938 -16.083l-14.144 0 0.503 0.26c0.615,0.321 1.128,0.818 1.437,1.414l1.262 0 0 -0.397c0,-0.371 0.3,-0.671 0.673,-0.671l0.725 0c0.371,0 0.672,0.3 0.672,0.671l0 0.153 0 0 0 0.244 4.788 0 0 -0.397c0,-0.371 0.301,-0.671 0.672,-0.671l0.726 0c0.372,0 0.673,0.3 0.673,0.671l0 0.153 0 0 0 0.244 2.021 0c1.337,0 2.42,1.083 2.42,2.418l0 9.404c0,0.322 -0.059,0.629 -0.166,0.914l0 0c0.109,-0.286 0.169,-0.595 0.169,-0.92l0 -10.584 0 -0.316 -0.03 -0.373 -0.078 -0.343c-0.186,-0.698 -0.668,-1.272 -1.306,-1.583l-0.325 -0.14c-0.227,-0.087 -0.452,-0.135 -0.692,-0.151z"/>
   <path class="fil21" d="M263.437 235.356l-52.171 0 0 0c-1.049,-0.045 -1.924,-0.757 -2.213,-1.723l2.468 0 0 0.47c0,0.371 0.299,0.673 0.672,0.673l0.408 0 0.409 0c0.32,0 0.581,-0.26 0.581,-0.582l0 -0.561 4.787 0 0 0.47c0,0.371 0.301,0.673 0.672,0.673l0.411 0 0.408 0c0.32,0 0.581,-0.26 0.581,-0.582l0 -0.561 4.788 0 0 0.47c0,0.371 0.301,0.673 0.672,0.673l0.41 0 0.406 0c0.322,0 0.581,-0.26 0.581,-0.582l0 -0.561 4.789 0 0 0.47c0,0.371 0.3,0.673 0.673,0.673l0.408 0 0.409 0c0.321,0 0.581,-0.26 0.581,-0.582l0 -0.561 4.787 0 0 0.47c0,0.371 0.301,0.673 0.672,0.673l0.411 0 0.407 0c0.32,0 0.581,-0.26 0.581,-0.582l0 -0.561 4.788 0 0 0.47c0,0.371 0.301,0.673 0.672,0.673l0.41 0 0.407 0c0.322,0 0.581,-0.26 0.581,-0.582l0 -0.561 0.957 0c1.599,0 2.888,-1.289 2.888,-2.889l0 -8.555c-0.007,-0.443 -0.121,-0.862 -0.318,-1.242l1.262 0 0 13.156c0,0.371 0.3,0.673 0.673,0.673l0.408 0 0.408 0c0.32,0 0.581,-0.26 0.581,-0.582l0 -13.247 4.788 0 0 13.156c0,0.371 0.301,0.673 0.672,0.673l0.41 0 0.408 0c0.32,0 0.581,-0.26 0.581,-0.582l0 -13.247 2.021 0c1.337,0 2.42,1.083 2.42,2.418l0 9.404c0,0.322 -0.059,0.629 -0.166,0.914l0 0c-0.374,0.977 -1.323,1.673 -2.439,1.673z"/>
   <path class="fil18" d="M212.601 234.776l-0.408 0c-0.373,0 -0.672,-0.302 -0.672,-0.673l0 -0.47 0.502 0 0 0.561c0,0.322 0.259,0.582 0.578,0.582z"/>
   <path class="fil22" d="M213.01 234.776l-0.409 0 0 0c-0.319,0 -0.578,-0.26 -0.578,-0.582l0 -0.561 1.568 0 0 0.561c0,0.322 -0.261,0.582 -0.581,0.582z"/>
   <path class="fil18" d="M219.461 234.776l-0.411 0c-0.371,0 -0.672,-0.302 -0.672,-0.673l0 -0.47 0.502 0 0 0.561c0,0.322 0.259,0.582 0.581,0.582z"/>
   <path class="fil22" d="M219.869 234.776l-0.408 0 0 0c-0.322,0 -0.581,-0.26 -0.581,-0.582l0 -0.561 1.57 0 0 0.561c0,0.322 -0.261,0.582 -0.581,0.582z"/>
   <path class="fil18" d="M226.32 234.776l-0.41 0c-0.371,0 -0.672,-0.302 -0.672,-0.673l0 -0.47 0.501 0 0 0.561c0,0.322 0.259,0.582 0.581,0.582z"/>
   <path class="fil22" d="M226.726 234.776l-0.406 0 0 0c-0.322,0 -0.581,-0.26 -0.581,-0.582l0 -0.561 1.568 0 0 0.561c0,0.322 -0.259,0.582 -0.581,0.582z"/>
   <path class="fil18" d="M233.177 234.776l-0.408 0c-0.373,0 -0.673,-0.302 -0.673,-0.673l0 -0.47 0.5 0 0 0.561c0,0.322 0.261,0.582 0.581,0.582z"/>
   <path class="fil22" d="M233.586 234.776l-0.409 0 0 0c-0.32,0 -0.581,-0.26 -0.581,-0.582l0 -0.561 1.571 0 0 0.561c0,0.322 -0.26,0.582 -0.581,0.582z"/>
   <path class="fil18" d="M240.037 234.776l-0.411 0c-0.371,0 -0.672,-0.302 -0.672,-0.673l0 -0.47 0.502 0 0 0.561c0,0.322 0.261,0.582 0.581,0.582z"/>
   <path class="fil22" d="M240.444 234.776l-0.407 0 0 0c-0.32,0 -0.581,-0.26 -0.581,-0.582l0 -0.561 1.569 0 0 0.561c0,0.322 -0.261,0.582 -0.581,0.582z"/>
   <path class="fil18" d="M246.895 234.776l-0.41 0c-0.371,0 -0.672,-0.302 -0.672,-0.673l0 -0.47 0.501 0 0 0.561c0,0.322 0.26,0.582 0.581,0.582z"/>
   <path class="fil22" d="M247.302 234.776l-0.407 0 0 0c-0.321,0 -0.581,-0.26 -0.581,-0.582l0 -0.561 1.569 0 0 0.561c0,0.322 -0.259,0.582 -0.581,0.582z"/>
   <path class="fil18" d="M253.753 234.776l-0.408 0c-0.373,0 -0.673,-0.302 -0.673,-0.673l0 -13.553c0,-0.371 0.3,-0.671 0.673,-0.671l0.725 0c0.371,0 0.672,0.3 0.672,0.671l0 0.153c0,-0.322 -0.261,-0.581 -0.581,-0.581l-0.408 0c-0.319,0 -0.579,0.259 -0.579,0.581l0 13.491c0,0.322 0.26,0.582 0.579,0.582z"/>
   <path class="fil22" d="M254.161 234.776l-0.408 0 0 0c-0.319,0 -0.579,-0.26 -0.579,-0.582l0 -13.491c0,-0.322 0.26,-0.581 0.579,-0.581l0.408 0c0.32,0 0.581,0.259 0.581,0.581l0 13.491c0,0.322 -0.261,0.582 -0.581,0.582z"/>
   <path class="fil18" d="M260.612 234.776l-0.41 0c-0.371,0 -0.672,-0.302 -0.672,-0.673l0 -13.553c0,-0.371 0.301,-0.671 0.672,-0.671l0.726 0c0.372,0 0.673,0.3 0.673,0.671l0 0.153c0,-0.322 -0.261,-0.581 -0.581,-0.581l-0.408 0c-0.322,0 -0.581,0.259 -0.581,0.581l0 13.491c0,0.322 0.259,0.582 0.581,0.582z"/>
   <path class="fil22" d="M261.02 234.776l-0.408 0 0 0c-0.322,0 -0.581,-0.26 -0.581,-0.582l0 -13.491c0,-0.322 0.259,-0.581 0.581,-0.581l0.408 0c0.32,0 0.581,0.259 0.581,0.581l0 13.491c0,0.322 -0.261,0.582 -0.581,0.582z"/>
   <path class="fil13" d="M334.761 221.863l0 10.9c0,1.429 -1.165,2.593 -2.609,2.593l-53.761 0c-1.118,0 -2.081,-0.714 -2.438,-1.723 -0.109,-0.264 -0.155,-0.559 -0.155,-0.87l0 -10.9c0,-1.43 1.165,-2.594 2.593,-2.594l53.761 0c0.311,0 0.59,0.047 0.87,0.155l0.326 0.14c0.637,0.311 1.118,0.885 1.304,1.583l0.078 0.343 0.031 0.373z"/>
   <path class="fil14" d="M332.173 235.358l-52.084 0c-1.337,0 -2.42,-1.082 -2.42,-2.42l0 -9.573c0,-1.335 1.083,-2.418 2.42,-2.418l52.249 0c1.338,0 2.419,1.083 2.419,2.418l0 9.407c0,1.43 -1.156,2.586 -2.584,2.586z"/>
   <path class="fil15" d="M285.454 232.593l-1.65 0c-0.438,0 -0.793,-0.354 -0.793,-0.793l0 -10.708c0,-0.438 0.355,-0.794 0.793,-0.794l1.65 0c0.437,0 0.792,0.356 0.792,0.794l0 10.708c0,0.439 -0.355,0.793 -0.792,0.793z"/>
   <path class="fil16" d="M278.983 232.593l-1.649 0c-0.438,0 -0.794,-0.354 -0.794,-0.793l0 -10.708c0,-0.438 0.356,-0.794 0.794,-0.794l1.649 0c0.438,0 0.793,0.356 0.793,0.794l0 10.708c0,0.439 -0.355,0.793 -0.793,0.793z"/>
   <path class="fil15" d="M292.409 232.593l-1.649 0c-0.438,0 -0.794,-0.354 -0.794,-0.793l0 -10.708c0,-0.438 0.356,-0.794 0.794,-0.794l1.649 0c0.438,0 0.794,0.356 0.794,0.794l0 10.708c0,0.439 -0.356,0.793 -0.794,0.793z"/>
   <path class="fil17" d="M299.17 232.593l-1.649 0c-0.438,0 -0.793,-0.354 -0.793,-0.793l0 -10.708c0,-0.438 0.355,-0.794 0.793,-0.794l1.649 0c0.438,0 0.794,0.356 0.794,0.794l0 10.708c0,0.439 -0.356,0.793 -0.794,0.793z"/>
   <path class="fil18" d="M281.634 234.776l-0.726 0c-0.37,0 -0.672,-0.302 -0.672,-0.673l0 -13.553c0,-0.371 0.302,-0.671 0.672,-0.671l0.726 0c0.372,0 0.672,0.3 0.672,0.671l0 13.553c0,0.371 -0.3,0.673 -0.672,0.673z"/>
   <path class="fil19" d="M281.727 234.776l-0.409 0c-0.321,0 -0.58,-0.26 -0.58,-0.582l0 -13.491c0,-0.322 0.259,-0.581 0.58,-0.581l0.409 0c0.32,0 0.579,0.259 0.579,0.581l0 13.491c0,0.322 -0.259,0.582 -0.579,0.582z"/>
   <path class="fil18" d="M288.492 234.776l-0.724 0c-0.372,0 -0.673,-0.302 -0.673,-0.673l0 -13.553c0,-0.371 0.301,-0.671 0.673,-0.671l0.724 0c0.372,0 0.673,0.3 0.673,0.671l0 13.553c0,0.371 -0.301,0.673 -0.673,0.673z"/>
   <path class="fil19" d="M288.584 234.776l-0.406 0c-0.322,0 -0.581,-0.26 -0.581,-0.582l0 -13.491c0,-0.322 0.259,-0.581 0.581,-0.581l0.406 0c0.322,0 0.581,0.259 0.581,0.581l0 13.491c0,0.322 -0.259,0.582 -0.581,0.582z"/>
   <path class="fil18" d="M295.352 234.776l-0.727 0c-0.371,0 -0.672,-0.302 -0.672,-0.673l0 -13.553c0,-0.371 0.301,-0.671 0.672,-0.671l0.727 0c0.371,0 0.672,0.3 0.672,0.671l0 13.553c0,0.371 -0.301,0.673 -0.672,0.673z"/>
   <path class="fil19" d="M295.444 234.776l-0.409 0c-0.32,0 -0.58,-0.26 -0.58,-0.582l0 -13.491c0,-0.322 0.26,-0.581 0.58,-0.581l0.409 0c0.319,0 0.58,0.259 0.58,0.581l0 13.491c0,0.322 -0.261,0.582 -0.58,0.582z"/>
   <path class="fil18" d="M302.209 234.776l-0.725 0c-0.371,0 -0.672,-0.302 -0.672,-0.673l0 -13.553c0,-0.371 0.301,-0.671 0.672,-0.671l0.725 0c0.373,0 0.673,0.3 0.673,0.671l0 13.553c0,0.371 -0.3,0.673 -0.673,0.673z"/>
   <path class="fil19" d="M302.302 234.776l-0.408 0c-0.322,0 -0.581,-0.26 -0.581,-0.582l0 -13.491c0,-0.322 0.259,-0.581 0.581,-0.581l0.408 0c0.32,0 0.58,0.259 0.58,0.581l0 13.491c0,0.322 -0.26,0.582 -0.58,0.582z"/>
   <path class="fil18" d="M309.068 234.776l-0.725 0c-0.371,0 -0.673,-0.302 -0.673,-0.673l0 -13.553c0,-0.371 0.302,-0.671 0.673,-0.671l0.725 0c0.372,0 0.673,0.3 0.673,0.671l0 13.553c0,0.371 -0.301,0.673 -0.673,0.673z"/>
   <path class="fil19" d="M309.16 234.776l-0.407 0c-0.321,0 -0.581,-0.26 -0.581,-0.582l0 -13.491c0,-0.322 0.26,-0.581 0.581,-0.581l0.407 0c0.322,0 0.581,0.259 0.581,0.581l0 13.491c0,0.322 -0.259,0.582 -0.581,0.582z"/>
   <path class="fil18" d="M315.928 234.776l-0.727 0c-0.371,0 -0.671,-0.302 -0.671,-0.673l0 -13.553c0,-0.371 0.3,-0.671 0.671,-0.671l0.727 0c0.371,0 0.672,0.3 0.672,0.671l0 13.553c0,0.371 -0.301,0.673 -0.672,0.673z"/>
   <path class="fil19" d="M316.019 234.776l-0.409 0c-0.319,0 -0.58,-0.26 -0.58,-0.582l0 -13.491c0,-0.322 0.261,-0.581 0.58,-0.581l0.409 0c0.32,0 0.581,0.259 0.581,0.581l0 13.491c0,0.322 -0.261,0.582 -0.581,0.582z"/>
   <path class="fil18" d="M322.785 234.776l-0.725 0c-0.371,0 -0.673,-0.302 -0.673,-0.673l0 -13.553c0,-0.371 0.302,-0.671 0.673,-0.671l0.725 0c0.373,0 0.673,0.3 0.673,0.671l0 13.553c0,0.371 -0.3,0.673 -0.673,0.673z"/>
   <path class="fil19" d="M322.878 234.776l-0.408 0c-0.322,0 -0.581,-0.26 -0.581,-0.582l0 -13.491c0,-0.322 0.259,-0.581 0.581,-0.581l0.408 0c0.321,0 0.58,0.259 0.58,0.581l0 13.491c0,0.322 -0.259,0.582 -0.58,0.582z"/>
   <path class="fil18" d="M329.644 234.776l-0.725 0c-0.371,0 -0.672,-0.302 -0.672,-0.673l0 -13.553c0,-0.371 0.301,-0.671 0.672,-0.671l0.725 0c0.371,0 0.672,0.3 0.672,0.671l0 13.553c0,0.371 -0.301,0.673 -0.672,0.673z"/>
   <path class="fil19" d="M329.736 234.776l-0.407 0c-0.321,0 -0.581,-0.26 -0.581,-0.582l0 -13.491c0,-0.322 0.26,-0.581 0.581,-0.581l0.407 0c0.321,0 0.58,0.259 0.58,0.581l0 13.491c0,0.322 -0.259,0.582 -0.58,0.582z"/>
   <path class="fil20" d="M279.983 235.356l-1.592 0c-1.118,0 -2.081,-0.714 -2.438,-1.723l1.817 0c0.289,0.966 1.165,1.678 2.213,1.723zm54.674 -1.866c0.065,-0.228 0.1,-0.467 0.1,-0.718l0 -9.407c0,-1.335 -1.081,-2.418 -2.419,-2.418l-2.022 0 0 -0.397c0,-0.371 -0.301,-0.671 -0.672,-0.671l-0.725 0c-0.371,0 -0.672,0.3 -0.672,0.671l0 0.397 -4.789 0 0 -0.397c0,-0.371 -0.3,-0.671 -0.673,-0.671l-0.725 0c-0.371,0 -0.673,0.3 -0.673,0.671l0 0.397 -1.262 0c-0.309,-0.596 -0.819,-1.093 -1.437,-1.414l-0.512 -0.264 13.976 0c0.311,0 0.59,0.047 0.87,0.155l0.326 0.14c0.637,0.311 1.118,0.885 1.304,1.583l0.078 0.343 0.031 0.373 0 10.9c0,0.252 -0.036,0.496 -0.104,0.727z"/>
   <path class="fil21" d="M332.152 235.356l-52.169 0 0 0c-1.048,-0.045 -1.924,-0.757 -2.213,-1.723l2.466 0 0 0.47c0,0.371 0.302,0.673 0.672,0.673l0.41 0 0.409 0c0.32,0 0.579,-0.26 0.579,-0.582l0 -0.561 4.789 0 0 0.47c0,0.371 0.301,0.673 0.673,0.673l0.41 0 0.406 0c0.322,0 0.581,-0.26 0.581,-0.582l0 -0.561 4.788 0 0 0.47c0,0.371 0.301,0.673 0.672,0.673l0.41 0 0.409 0c0.319,0 0.58,-0.26 0.58,-0.582l0 -0.561 4.788 0 0 0.47c0,0.371 0.301,0.673 0.672,0.673l0.41 0 0.408 0c0.32,0 0.58,-0.26 0.58,-0.582l0 -0.561 4.788 0 0 0.47c0,0.371 0.302,0.673 0.673,0.673l0.41 0 0.407 0c0.322,0 0.581,-0.26 0.581,-0.582l0 -0.561 4.789 0 0 0.47c0,0.371 0.3,0.673 0.671,0.673l0.409 0 0.409 0c0.32,0 0.581,-0.26 0.581,-0.582l0 -0.561 0.955 0c1.599,0 2.888,-1.289 2.888,-2.889l0 -8.555c-0.006,-0.443 -0.121,-0.862 -0.318,-1.242l1.262 0 0 13.156c0,0.371 0.302,0.673 0.673,0.673l0.41 0 0.408 0c0.321,0 0.58,-0.26 0.58,-0.582l0 -13.247 4.789 0 0 13.156c0,0.371 0.301,0.673 0.672,0.673l0.41 0 0.407 0c0.321,0 0.58,-0.26 0.58,-0.582l0 -13.247 2.022 0c1.338,0 2.419,1.083 2.419,2.418l0 9.407c0,0.251 -0.035,0.49 -0.1,0.718l0 0c-0.315,1.077 -1.315,1.866 -2.505,1.866z"/>
   <path class="fil18" d="M281.318 234.776l-0.41 0c-0.37,0 -0.672,-0.302 -0.672,-0.673l0 -0.47 0.502 0 0 0.561c0,0.322 0.259,0.582 0.58,0.582z"/>
   <path class="fil22" d="M281.727 234.776l-0.409 0 0 0c-0.321,0 -0.58,-0.26 -0.58,-0.582l0 -0.561 1.568 0 0 0.561c0,0.322 -0.259,0.582 -0.579,0.582z"/>
   <path class="fil18" d="M288.178 234.776l-0.41 0c-0.372,0 -0.673,-0.302 -0.673,-0.673l0 -0.47 0.502 0 0 0.561c0,0.322 0.259,0.582 0.581,0.582z"/>
   <path class="fil22" d="M288.584 234.776l-0.406 0 0 0c-0.322,0 -0.581,-0.26 -0.581,-0.582l0 -0.561 1.568 0 0 0.561c0,0.322 -0.259,0.582 -0.581,0.582z"/>
   <path class="fil18" d="M295.035 234.776l-0.41 0c-0.371,0 -0.672,-0.302 -0.672,-0.673l0 -0.47 0.502 0 0 0.561c0,0.322 0.26,0.582 0.58,0.582z"/>
   <path class="fil22" d="M295.444 234.776l-0.409 0 0 0c-0.32,0 -0.58,-0.26 -0.58,-0.582l0 -0.561 1.569 0 0 0.561c0,0.322 -0.261,0.582 -0.58,0.582z"/>
   <path class="fil18" d="M301.894 234.776l-0.41 0c-0.371,0 -0.672,-0.302 -0.672,-0.673l0 -0.47 0.501 0 0 0.561c0,0.322 0.259,0.582 0.581,0.582z"/>
   <path class="fil22" d="M302.302 234.776l-0.408 0 0 0c-0.322,0 -0.581,-0.26 -0.581,-0.582l0 -0.561 1.569 0 0 0.561c0,0.322 -0.26,0.582 -0.58,0.582z"/>
   <path class="fil18" d="M308.753 234.776l-0.41 0c-0.371,0 -0.673,-0.302 -0.673,-0.673l0 -0.47 0.502 0 0 0.561c0,0.322 0.26,0.582 0.581,0.582z"/>
   <path class="fil22" d="M309.16 234.776l-0.407 0 0 0c-0.321,0 -0.581,-0.26 -0.581,-0.582l0 -0.561 1.569 0 0 0.561c0,0.322 -0.259,0.582 -0.581,0.582z"/>
   <path class="fil18" d="M315.61 234.776l-0.409 0c-0.371,0 -0.671,-0.302 -0.671,-0.673l0 -0.47 0.5 0 0 0.561c0,0.322 0.261,0.582 0.58,0.582z"/>
   <path class="fil22" d="M316.019 234.776l-0.409 0 0 0c-0.319,0 -0.58,-0.26 -0.58,-0.582l0 -0.561 1.57 0 0 0.561c0,0.322 -0.261,0.582 -0.581,0.582z"/>
   <path class="fil18" d="M322.47 234.776l-0.41 0c-0.371,0 -0.673,-0.302 -0.673,-0.673l0 -13.553c0,-0.371 0.302,-0.671 0.673,-0.671l0.725 0c0.373,0 0.673,0.3 0.673,0.671l0 0.153c0,-0.322 -0.259,-0.581 -0.58,-0.581l-0.408 0c-0.322,0 -0.581,0.259 -0.581,0.581l0 13.491c0,0.322 0.259,0.582 0.581,0.582z"/>
   <path class="fil22" d="M322.878 234.776l-0.408 0 0 0c-0.322,0 -0.581,-0.26 -0.581,-0.582l0 -13.491c0,-0.322 0.259,-0.581 0.581,-0.581l0.408 0c0.321,0 0.58,0.259 0.58,0.581l0 13.491c0,0.322 -0.259,0.582 -0.58,0.582z"/>
   <path class="fil18" d="M329.329 234.776l-0.41 0c-0.371,0 -0.672,-0.302 -0.672,-0.673l0 -13.553c0,-0.371 0.301,-0.671 0.672,-0.671l0.725 0c0.371,0 0.672,0.3 0.672,0.671l0 0.153c0,-0.322 -0.259,-0.581 -0.58,-0.581l-0.407 0c-0.321,0 -0.581,0.259 -0.581,0.581l0 13.491c0,0.322 0.26,0.582 0.581,0.582z"/>
   <path class="fil22" d="M329.736 234.776l-0.407 0 0 0c-0.321,0 -0.581,-0.26 -0.581,-0.582l0 -13.491c0,-0.322 0.26,-0.581 0.581,-0.581l0.407 0c0.321,0 0.58,0.259 0.58,0.581l0 13.491c0,0.322 -0.259,0.582 -0.58,0.582z"/>
   <path class="fil13" d="M196.565 221.863l0 10.9c0,1.429 -1.165,2.593 -2.609,2.593l-53.761 0c-1.118,0 -2.081,-0.714 -2.438,-1.723 -0.109,-0.264 -0.156,-0.559 -0.156,-0.87l0 -10.9c0,-1.43 1.165,-2.594 2.594,-2.594l53.761 0c0.311,0 0.59,0.047 0.87,0.155l0.326 0.14c0.636,0.311 1.118,0.885 1.304,1.583l0.078 0.343 0.031 0.373z"/>
   <path class="fil14" d="M194.143 235.358l-52.251 0c-1.337,0 -2.42,-1.082 -2.42,-2.42l0 -9.573c0,-1.335 1.083,-2.418 2.42,-2.418l52.251 0c1.335,0 2.418,1.083 2.418,2.418l0 9.573c0,1.338 -1.083,2.42 -2.418,2.42z"/>
   <path class="fil15" d="M147.257 232.593l-1.65 0c-0.438,0 -0.792,-0.354 -0.792,-0.793l0 -10.708c0,-0.438 0.354,-0.794 0.792,-0.794l1.65 0c0.437,0 0.792,0.356 0.792,0.794l0 10.708c0,0.439 -0.355,0.793 -0.792,0.793z"/>
   <path class="fil16" d="M140.787 232.593l-1.651 0c-0.437,0 -0.792,-0.354 -0.792,-0.793l0 -10.708c0,-0.438 0.355,-0.794 0.792,-0.794l1.651 0c0.438,0 0.792,0.356 0.792,0.794l0 10.708c0,0.439 -0.354,0.793 -0.792,0.793z"/>
   <path class="fil15" d="M154.213 232.593l-1.651 0c-0.438,0 -0.792,-0.354 -0.792,-0.793l0 -10.708c0,-0.438 0.354,-0.794 0.792,-0.794l1.651 0c0.438,0 0.792,0.356 0.792,0.794l0 10.708c0,0.439 -0.354,0.793 -0.792,0.793z"/>
   <path class="fil17" d="M160.974 232.593l-1.65 0c-0.437,0 -0.792,-0.354 -0.792,-0.793l0 -10.708c0,-0.438 0.355,-0.794 0.792,-0.794l1.65 0c0.438,0 0.792,0.356 0.792,0.794l0 10.708c0,0.439 -0.354,0.793 -0.792,0.793z"/>
   <path class="fil18" d="M143.438 234.776l-0.726 0c-0.371,0 -0.672,-0.302 -0.672,-0.673l0 -13.553c0,-0.371 0.301,-0.671 0.672,-0.671l0.726 0c0.371,0 0.672,0.3 0.672,0.671l0 13.553c0,0.371 -0.301,0.673 -0.672,0.673z"/>
   <path class="fil19" d="M143.529 234.776l-0.408 0c-0.321,0 -0.58,-0.26 -0.58,-0.582l0 -13.491c0,-0.322 0.259,-0.581 0.58,-0.581l0.408 0c0.321,0 0.581,0.259 0.581,0.581l0 13.491c0,0.322 -0.26,0.582 -0.581,0.582z"/>
   <path class="fil18" d="M150.296 234.776l-0.726 0c-0.371,0 -0.673,-0.302 -0.673,-0.673l0 -13.553c0,-0.371 0.302,-0.671 0.673,-0.671l0.726 0c0.372,0 0.673,0.3 0.673,0.671l0 13.553c0,0.371 -0.301,0.673 -0.673,0.673z"/>
   <path class="fil19" d="M150.388 234.776l-0.408 0c-0.32,0 -0.581,-0.26 -0.581,-0.582l0 -13.491c0,-0.322 0.261,-0.581 0.581,-0.581l0.408 0c0.32,0 0.581,0.259 0.581,0.581l0 13.491c0,0.322 -0.261,0.582 -0.581,0.582z"/>
   <path class="fil18" d="M157.154 234.776l-0.725 0c-0.371,0 -0.672,-0.302 -0.672,-0.673l0 -13.553c0,-0.371 0.301,-0.671 0.672,-0.671l0.725 0c0.371,0 0.673,0.3 0.673,0.671l0 13.553c0,0.371 -0.302,0.673 -0.673,0.673z"/>
   <path class="fil19" d="M157.246 234.776l-0.407 0c-0.322,0 -0.581,-0.26 -0.581,-0.582l0 -13.491c0,-0.322 0.259,-0.581 0.581,-0.581l0.407 0c0.321,0 0.581,0.259 0.581,0.581l0 13.491c0,0.322 -0.26,0.582 -0.581,0.582z"/>
   <path class="fil18" d="M164.013 234.776l-0.725 0c-0.372,0 -0.672,-0.302 -0.672,-0.673l0 -13.553c0,-0.371 0.3,-0.671 0.672,-0.671l0.725 0c0.372,0 0.672,0.3 0.672,0.671l0 13.553c0,0.371 -0.3,0.673 -0.672,0.673z"/>
   <path class="fil19" d="M164.105 234.776l-0.407 0c-0.321,0 -0.581,-0.26 -0.581,-0.582l0 -13.491c0,-0.322 0.26,-0.581 0.581,-0.581l0.407 0c0.321,0 0.58,0.259 0.58,0.581l0 13.491c0,0.322 -0.259,0.582 -0.58,0.582z"/>
   <path class="fil18" d="M170.872 234.776l-0.727 0c-0.37,0 -0.672,-0.302 -0.672,-0.673l0 -13.553c0,-0.371 0.302,-0.671 0.672,-0.671l0.727 0c0.371,0 0.672,0.3 0.672,0.671l0 13.553c0,0.371 -0.301,0.673 -0.672,0.673z"/>
   <path class="fil19" d="M170.964 234.776l-0.409 0c-0.319,0 -0.58,-0.26 -0.58,-0.582l0 -13.491c0,-0.322 0.261,-0.581 0.58,-0.581l0.409 0c0.32,0 0.58,0.259 0.58,0.581l0 13.491c0,0.322 -0.26,0.582 -0.58,0.582z"/>
   <path class="fil18" d="M177.73 234.776l-0.725 0c-0.372,0 -0.672,-0.302 -0.672,-0.673l0 -13.553c0,-0.371 0.3,-0.671 0.672,-0.671l0.725 0c0.373,0 0.672,0.3 0.672,0.671l0 13.553c0,0.371 -0.299,0.673 -0.672,0.673z"/>
   <path class="fil19" d="M177.823 234.776l-0.408 0c-0.322,0 -0.581,-0.26 -0.581,-0.582l0 -13.491c0,-0.322 0.259,-0.581 0.581,-0.581l0.408 0c0.32,0 0.579,0.259 0.579,0.581l0 13.491c0,0.322 -0.259,0.582 -0.579,0.582z"/>
   <path class="fil18" d="M184.589 234.776l-0.726 0c-0.37,0 -0.672,-0.302 -0.672,-0.673l0 -13.553c0,-0.371 0.302,-0.671 0.672,-0.671l0.726 0c0.371,0 0.672,0.3 0.672,0.671l0 13.553c0,0.371 -0.301,0.673 -0.672,0.673z"/>
   <path class="fil19" d="M184.681 234.776l-0.409 0c-0.32,0 -0.579,-0.26 -0.579,-0.582l0 -13.491c0,-0.322 0.259,-0.581 0.579,-0.581l0.409 0c0.321,0 0.58,0.259 0.58,0.581l0 13.491c0,0.322 -0.259,0.582 -0.58,0.582z"/>
   <path class="fil18" d="M191.448 234.776l-0.727 0c-0.371,0 -0.672,-0.302 -0.672,-0.673l0 -13.553c0,-0.371 0.301,-0.671 0.672,-0.671l0.727 0c0.371,0 0.673,0.3 0.673,0.671l0 13.553c0,0.371 -0.302,0.673 -0.673,0.673z"/>
   <path class="fil19" d="M191.539 234.776l-0.408 0c-0.32,0 -0.581,-0.26 -0.581,-0.582l0 -13.491c0,-0.322 0.261,-0.581 0.581,-0.581l0.408 0c0.32,0 0.582,0.259 0.582,0.581l0 13.491c0,0.322 -0.262,0.582 -0.582,0.582z"/>
   <path class="fil20" d="M141.787 235.356l-1.592 0c-1.118,0 -2.081,-0.714 -2.438,-1.723l1.816 0c0.288,0.966 1.164,1.678 2.214,1.723zm54.774 -2.465l0 -9.526c0,-1.335 -1.083,-2.418 -2.418,-2.418l-2.022 0 0 -0.397c0,-0.371 -0.302,-0.671 -0.673,-0.671l-0.727 0c-0.371,0 -0.672,0.3 -0.672,0.671l0 0.397 -4.788 0 0 -0.397c0,-0.371 -0.301,-0.671 -0.672,-0.671l-0.726 0c-0.37,0 -0.672,0.3 -0.672,0.671l0 0.397 -1.262 0c-0.309,-0.596 -0.822,-1.093 -1.436,-1.414l-0.505 -0.26 9.686 0c0.049,0 0.097,-0.001 0.147,-0.004l4.135 0c0.311,0 0.59,0.047 0.87,0.155l0.326 0.14c0.636,0.311 1.118,0.885 1.304,1.583l0.078 0.343 0.031 0.373 0 10.9c0,0.044 -0.002,0.086 -0.004,0.128z"/>
   <path class="fil21" d="M193.956 235.356l-52.169 0 0 0c-1.05,-0.045 -1.926,-0.757 -2.214,-1.723l2.467 0 0 0.47c0,0.371 0.301,0.673 0.672,0.673l0.409 0 0.408 0c0.321,0 0.581,-0.26 0.581,-0.582l0 -0.561 4.787 0 0 0.47c0,0.371 0.302,0.673 0.673,0.673l0.41 0 0.408 0c0.32,0 0.581,-0.26 0.581,-0.582l0 -0.561 4.788 0 0 0.47c0,0.371 0.301,0.673 0.672,0.673l0.41 0 0.407 0c0.321,0 0.581,-0.26 0.581,-0.582l0 -0.561 4.789 0 0 0.47c0,0.371 0.3,0.673 0.672,0.673l0.41 0 0.407 0c0.321,0 0.58,-0.26 0.58,-0.582l0 -0.561 4.788 0 0 0.47c0,0.371 0.302,0.673 0.672,0.673l0.41 0 0.409 0c0.32,0 0.58,-0.26 0.58,-0.582l0 -0.561 4.789 0 0 0.47c0,0.371 0.3,0.673 0.672,0.673l0.41 0 0.408 0c0.32,0 0.579,-0.26 0.579,-0.582l0 -0.561 0.957 0c1.599,0 2.888,-1.289 2.888,-2.889l0 -8.555c-0.006,-0.443 -0.121,-0.862 -0.318,-1.242l1.262 0 0 13.156c0,0.371 0.302,0.673 0.672,0.673l0.409 0 0.409 0c0.321,0 0.58,-0.26 0.58,-0.582l0 -13.247 4.788 0 0 13.156c0,0.371 0.301,0.673 0.672,0.673l0.41 0 0.408 0c0.32,0 0.582,-0.26 0.582,-0.582l0 -13.247 2.022 0c1.335,0 2.418,1.083 2.418,2.418l0 9.526c-0.066,1.369 -1.204,2.465 -2.605,2.465z"/>
   <path class="fil18" d="M143.121 234.776l-0.409 0c-0.371,0 -0.672,-0.302 -0.672,-0.673l0 -0.47 0.501 0 0 0.561c0,0.322 0.259,0.582 0.58,0.582z"/>
   <path class="fil22" d="M143.529 234.776l-0.408 0 0 0c-0.321,0 -0.58,-0.26 -0.58,-0.582l0 -0.561 1.569 0 0 0.561c0,0.322 -0.26,0.582 -0.581,0.582z"/>
   <path class="fil18" d="M149.98 234.776l-0.41 0c-0.371,0 -0.673,-0.302 -0.673,-0.673l0 -0.47 0.502 0 0 0.561c0,0.322 0.261,0.582 0.581,0.582z"/>
   <path class="fil22" d="M150.388 234.776l-0.408 0 0 0c-0.32,0 -0.581,-0.26 -0.581,-0.582l0 -0.561 1.57 0 0 0.561c0,0.322 -0.261,0.582 -0.581,0.582z"/>
   <path class="fil18" d="M156.839 234.776l-0.41 0c-0.371,0 -0.672,-0.302 -0.672,-0.673l0 -0.47 0.501 0 0 0.561c0,0.322 0.259,0.582 0.581,0.582z"/>
   <path class="fil22" d="M157.246 234.776l-0.407 0 0 0c-0.322,0 -0.581,-0.26 -0.581,-0.582l0 -0.561 1.569 0 0 0.561c0,0.322 -0.26,0.582 -0.581,0.582z"/>
   <path class="fil18" d="M163.698 234.776l-0.41 0c-0.372,0 -0.672,-0.302 -0.672,-0.673l0 -0.47 0.501 0 0 0.561c0,0.322 0.26,0.582 0.581,0.582z"/>
   <path class="fil22" d="M164.105 234.776l-0.407 0 0 0c-0.321,0 -0.581,-0.26 -0.581,-0.582l0 -0.561 1.568 0 0 0.561c0,0.322 -0.259,0.582 -0.58,0.582z"/>
   <path class="fil18" d="M170.555 234.776l-0.41 0c-0.37,0 -0.672,-0.302 -0.672,-0.673l0 -0.47 0.502 0 0 0.561c0,0.322 0.261,0.582 0.58,0.582z"/>
   <path class="fil22" d="M170.964 234.776l-0.409 0 0 0c-0.319,0 -0.58,-0.26 -0.58,-0.582l0 -0.561 1.569 0 0 0.561c0,0.322 -0.26,0.582 -0.58,0.582z"/>
   <path class="fil18" d="M177.415 234.776l-0.41 0c-0.372,0 -0.672,-0.302 -0.672,-0.673l0 -0.47 0.501 0 0 0.561c0,0.322 0.259,0.582 0.581,0.582z"/>
   <path class="fil22" d="M177.823 234.776l-0.408 0 0 0c-0.322,0 -0.581,-0.26 -0.581,-0.582l0 -0.561 1.568 0 0 0.561c0,0.322 -0.259,0.582 -0.579,0.582z"/>
   <path class="fil18" d="M184.272 234.776l-0.409 0c-0.37,0 -0.672,-0.302 -0.672,-0.673l0 -13.553c0,-0.371 0.302,-0.671 0.672,-0.671l0.726 0c0.371,0 0.672,0.3 0.672,0.671l0 0.153c0,-0.322 -0.259,-0.581 -0.58,-0.581l-0.409 0c-0.32,0 -0.579,0.259 -0.579,0.581l0 13.491c0,0.322 0.259,0.582 0.579,0.582z"/>
   <path class="fil22" d="M184.681 234.776l-0.409 0 0 0c-0.32,0 -0.579,-0.26 -0.579,-0.582l0 -13.491c0,-0.322 0.259,-0.581 0.579,-0.581l0.409 0c0.321,0 0.58,0.259 0.58,0.581l0 13.491c0,0.322 -0.259,0.582 -0.58,0.582z"/>
   <path class="fil18" d="M191.131 234.776l-0.41 0c-0.371,0 -0.672,-0.302 -0.672,-0.673l0 -13.553c0,-0.371 0.301,-0.671 0.672,-0.671l0.727 0c0.371,0 0.673,0.3 0.673,0.671l0 0.153c0,-0.322 -0.262,-0.581 -0.582,-0.581l-0.408 0c-0.32,0 -0.581,0.259 -0.581,0.581l0 13.491c0,0.322 0.261,0.582 0.581,0.582z"/>
   <path class="fil22" d="M191.539 234.776l-0.408 0 0 0c-0.32,0 -0.581,-0.26 -0.581,-0.582l0 -13.491c0,-0.322 0.261,-0.581 0.581,-0.581l0.408 0c0.32,0 0.582,0.259 0.582,0.581l0 13.491c0,0.322 -0.262,0.582 -0.582,0.582z"/>
   <path class="fil13" d="M192.097 205.776l0 10.901c0,1.428 -1.165,2.593 -2.609,2.593l-53.761 0c-1.118,0 -2.081,-0.714 -2.437,-1.723 -0.109,-0.265 -0.156,-0.559 -0.156,-0.87l0 -10.901c0,-1.429 1.165,-2.593 2.593,-2.593l53.761 0c0.31,0 0.59,0.046 0.87,0.155l0.326 0.139c0.637,0.311 1.118,0.886 1.305,1.584l0.077 0.342 0.031 0.373z"/>
   <path class="fil14" d="M189.674 219.273l-52.251 0c-1.335,0 -2.42,-1.083 -2.42,-2.419l0 -9.575c0,-1.335 1.085,-2.419 2.42,-2.419l52.251 0c1.336,0 2.421,1.084 2.421,2.419l0 9.575c0,1.336 -1.085,2.419 -2.421,2.419z"/>
   <path class="fil15" d="M142.79 216.506l-1.651 0c-0.438,0 -0.792,-0.354 -0.792,-0.792l0 -10.709c0,-0.437 0.354,-0.792 0.792,-0.792l1.651 0c0.436,0 0.792,0.355 0.792,0.792l0 10.709c0,0.438 -0.356,0.792 -0.792,0.792z"/>
   <path class="fil16" d="M136.319 216.506l-1.651 0c-0.436,0 -0.792,-0.354 -0.792,-0.792l0 -10.709c0,-0.437 0.356,-0.792 0.792,-0.792l1.651 0c0.438,0 0.792,0.355 0.792,0.792l0 10.709c0,0.438 -0.354,0.792 -0.792,0.792z"/>
   <path class="fil15" d="M149.745 216.506l-1.651 0c-0.437,0 -0.792,-0.354 -0.792,-0.792l0 -10.709c0,-0.437 0.355,-0.792 0.792,-0.792l1.651 0c0.438,0 0.792,0.355 0.792,0.792l0 10.709c0,0.438 -0.354,0.792 -0.792,0.792z"/>
   <path class="fil17" d="M156.506 216.506l-1.651 0c-0.435,0 -0.792,-0.354 -0.792,-0.792l0 -10.709c0,-0.437 0.357,-0.792 0.792,-0.792l1.651 0c0.438,0 0.793,0.355 0.793,0.792l0 10.709c0,0.438 -0.355,0.792 -0.793,0.792z"/>
   <path class="fil18" d="M138.97 218.691l-0.726 0c-0.372,0 -0.672,-0.301 -0.672,-0.672l0 -13.554c0,-0.371 0.3,-0.672 0.672,-0.672l0.726 0c0.37,0 0.672,0.301 0.672,0.672l0 13.554c0,0.371 -0.302,0.672 -0.672,0.672z"/>
   <path class="fil19" d="M139.061 218.691l-0.408 0c-0.32,0 -0.579,-0.261 -0.579,-0.581l0 -13.494c0,-0.321 0.259,-0.581 0.579,-0.581l0.408 0c0.322,0 0.581,0.26 0.581,0.581l0 13.494c0,0.32 -0.259,0.581 -0.581,0.581z"/>
   <path class="fil18" d="M145.829 218.691l-0.727 0c-0.371,0 -0.672,-0.301 -0.672,-0.672l0 -13.554c0,-0.371 0.301,-0.672 0.672,-0.672l0.727 0c0.371,0 0.672,0.301 0.672,0.672l0 13.554c0,0.371 -0.301,0.672 -0.672,0.672z"/>
   <path class="fil19" d="M145.92 218.691l-0.408 0c-0.32,0 -0.581,-0.261 -0.581,-0.581l0 -13.494c0,-0.321 0.261,-0.581 0.581,-0.581l0.408 0c0.32,0 0.581,0.26 0.581,0.581l0 13.494c0,0.32 -0.261,0.581 -0.581,0.581z"/>
   <path class="fil18" d="M152.686 218.691l-0.725 0c-0.371,0 -0.673,-0.301 -0.673,-0.672l0 -13.554c0,-0.371 0.302,-0.672 0.673,-0.672l0.725 0c0.373,0 0.673,0.301 0.673,0.672l0 13.554c0,0.371 -0.3,0.672 -0.673,0.672z"/>
   <path class="fil19" d="M152.78 218.691l-0.409 0c-0.321,0 -0.581,-0.261 -0.581,-0.581l0 -13.494c0,-0.321 0.26,-0.581 0.581,-0.581l0.409 0c0.32,0 0.579,0.26 0.579,0.581l0 13.494c0,0.32 -0.259,0.581 -0.579,0.581z"/>
   <path class="fil18" d="M159.546 218.691l-0.726 0c-0.372,0 -0.672,-0.301 -0.672,-0.672l0 -13.554c0,-0.371 0.3,-0.672 0.672,-0.672l0.726 0c0.37,0 0.672,0.301 0.672,0.672l0 13.554c0,0.371 -0.302,0.672 -0.672,0.672z"/>
   <path class="fil19" d="M159.637 218.691l-0.408 0c-0.32,0 -0.579,-0.261 -0.579,-0.581l0 -13.494c0,-0.321 0.259,-0.581 0.579,-0.581l0.408 0c0.322,0 0.581,0.26 0.581,0.581l0 13.494c0,0.32 -0.259,0.581 -0.581,0.581z"/>
   <path class="fil18" d="M166.405 218.691l-0.727 0c-0.372,0 -0.673,-0.301 -0.673,-0.672l0 -13.554c0,-0.371 0.301,-0.672 0.673,-0.672l0.727 0c0.371,0 0.672,0.301 0.672,0.672l0 13.554c0,0.371 -0.301,0.672 -0.672,0.672z"/>
   <path class="fil19" d="M166.496 218.691l-0.408 0c-0.32,0 -0.581,-0.261 -0.581,-0.581l0 -13.494c0,-0.321 0.261,-0.581 0.581,-0.581l0.408 0c0.32,0 0.581,0.26 0.581,0.581l0 13.494c0,0.32 -0.261,0.581 -0.581,0.581z"/>
   <path class="fil18" d="M173.262 218.691l-0.725 0c-0.371,0 -0.672,-0.301 -0.672,-0.672l0 -13.554c0,-0.371 0.301,-0.672 0.672,-0.672l0.725 0c0.371,0 0.672,0.301 0.672,0.672l0 13.554c0,0.371 -0.301,0.672 -0.672,0.672z"/>
   <path class="fil19" d="M173.354 218.691l-0.407 0c-0.321,0 -0.58,-0.261 -0.58,-0.581l0 -13.494c0,-0.321 0.259,-0.581 0.58,-0.581l0.407 0c0.321,0 0.58,0.26 0.58,0.581l0 13.494c0,0.32 -0.259,0.581 -0.58,0.581z"/>
   <path class="fil18" d="M180.121 218.691l-0.725 0c-0.373,0 -0.673,-0.301 -0.673,-0.672l0 -13.554c0,-0.371 0.3,-0.672 0.673,-0.672l0.725 0c0.372,0 0.673,0.301 0.673,0.672l0 13.554c0,0.371 -0.301,0.672 -0.673,0.672z"/>
   <path class="fil19" d="M180.213 218.691l-0.408 0c-0.321,0 -0.58,-0.261 -0.58,-0.581l0 -13.494c0,-0.321 0.259,-0.581 0.58,-0.581l0.408 0c0.321,0 0.581,0.26 0.581,0.581l0 13.494c0,0.32 -0.26,0.581 -0.581,0.581z"/>
   <path class="fil18" d="M186.98 218.691l-0.726 0c-0.372,0 -0.673,-0.301 -0.673,-0.672l0 -13.554c0,-0.371 0.301,-0.672 0.673,-0.672l0.726 0c0.372,0 0.673,0.301 0.673,0.672l0 13.554c0,0.371 -0.301,0.672 -0.673,0.672z"/>
   <path class="fil19" d="M187.072 218.691l-0.408 0c-0.32,0 -0.581,-0.261 -0.581,-0.581l0 -13.494c0,-0.321 0.261,-0.581 0.581,-0.581l0.408 0c0.32,0 0.581,0.26 0.581,0.581l0 13.494c0,0.32 -0.261,0.581 -0.581,0.581z"/>
   <path class="fil20" d="M137.318 219.27l-1.591 0c-1.118,0 -2.081,-0.714 -2.437,-1.723l1.815 0c0.289,0.965 1.164,1.678 2.213,1.723zm54.777 -2.466l0 -9.525c0,-1.335 -1.085,-2.419 -2.421,-2.419l-2.021 0 0 -0.395c0,-0.371 -0.301,-0.672 -0.673,-0.672l-0.726 0c-0.372,0 -0.673,0.301 -0.673,0.672l0 0.395 -4.787 0 0 -0.395c0,-0.371 -0.301,-0.672 -0.673,-0.672l-0.725 0c-0.373,0 -0.673,0.301 -0.673,0.672l0 0.395 -1.262 0c-0.309,-0.595 -0.821,-1.091 -1.436,-1.413l-0.513 -0.264 13.976 0c0.31,0 0.59,0.046 0.87,0.155l0.326 0.139c0.637,0.311 1.118,0.886 1.305,1.584l0.077 0.342 0.031 0.373 0 10.901c0,0.044 -0.001,0.086 -0.002,0.127z"/>
   <path class="fil21" d="M189.488 219.27l-52.17 0 0 0c-1.049,-0.045 -1.924,-0.758 -2.213,-1.723l2.467 0 0 0.472c0,0.371 0.3,0.672 0.672,0.672l0.409 0 0.408 0c0.322,0 0.581,-0.261 0.581,-0.581l0 -0.563 4.788 0 0 0.472c0,0.371 0.301,0.672 0.672,0.672l0.41 0 0.408 0c0.32,0 0.581,-0.261 0.581,-0.581l0 -0.563 4.787 0 0 0.472c0,0.371 0.302,0.672 0.673,0.672l0.41 0 0.409 0c0.32,0 0.579,-0.261 0.579,-0.581l0 -0.563 4.789 0 0 0.472c0,0.371 0.3,0.672 0.672,0.672l0.409 0 0.408 0c0.322,0 0.581,-0.261 0.581,-0.581l0 -0.563 4.787 0 0 0.472c0,0.371 0.301,0.672 0.673,0.672l0.41 0 0.408 0c0.32,0 0.581,-0.261 0.581,-0.581l0 -0.563 4.788 0 0 0.472c0,0.371 0.301,0.672 0.672,0.672l0.41 0 0.407 0c0.321,0 0.58,-0.261 0.58,-0.581l0 -0.563 0.957 0c1.599,0 2.889,-1.289 2.889,-2.889l0 -8.556c-0.007,-0.441 -0.122,-0.862 -0.319,-1.242l1.262 0 0 13.159c0,0.371 0.3,0.672 0.673,0.672l0.409 0 0.408 0c0.321,0 0.581,-0.261 0.581,-0.581l0 -13.25 4.787 0 0 13.159c0,0.371 0.301,0.672 0.673,0.672l0.41 0 0.408 0c0.32,0 0.581,-0.261 0.581,-0.581l0 -13.25 2.021 0c1.336,0 2.421,1.084 2.421,2.419l0 9.525c-0.068,1.37 -1.206,2.466 -2.607,2.466z"/>
   <path class="fil18" d="M138.653 218.691l-0.409 0c-0.372,0 -0.672,-0.301 -0.672,-0.672l0 -0.472 0.502 0 0 0.563c0,0.32 0.259,0.581 0.579,0.581z"/>
   <path class="fil22" d="M139.061 218.691l-0.408 0 0 0c-0.32,0 -0.579,-0.261 -0.579,-0.581l0 -0.563 1.568 0 0 0.563c0,0.32 -0.259,0.581 -0.581,0.581z"/>
   <path class="fil18" d="M145.512 218.691l-0.41 0c-0.371,0 -0.672,-0.301 -0.672,-0.672l0 -0.472 0.501 0 0 0.563c0,0.32 0.261,0.581 0.581,0.581z"/>
   <path class="fil22" d="M145.92 218.691l-0.408 0 0 0c-0.32,0 -0.581,-0.261 -0.581,-0.581l0 -0.563 1.57 0 0 0.563c0,0.32 -0.261,0.581 -0.581,0.581z"/>
   <path class="fil18" d="M152.371 218.691l-0.41 0c-0.371,0 -0.673,-0.301 -0.673,-0.672l0 -0.472 0.502 0 0 0.563c0,0.32 0.26,0.581 0.581,0.581z"/>
   <path class="fil22" d="M152.78 218.691l-0.409 0 0 0c-0.321,0 -0.581,-0.261 -0.581,-0.581l0 -0.563 1.569 0 0 0.563c0,0.32 -0.259,0.581 -0.579,0.581z"/>
   <path class="fil18" d="M159.229 218.691l-0.409 0c-0.372,0 -0.672,-0.301 -0.672,-0.672l0 -0.472 0.502 0 0 0.563c0,0.32 0.259,0.581 0.579,0.581z"/>
   <path class="fil22" d="M159.637 218.691l-0.408 0 0 0c-0.32,0 -0.579,-0.261 -0.579,-0.581l0 -0.563 1.568 0 0 0.563c0,0.32 -0.259,0.581 -0.581,0.581z"/>
   <path class="fil18" d="M166.088 218.691l-0.41 0c-0.372,0 -0.673,-0.301 -0.673,-0.672l0 -0.472 0.502 0 0 0.563c0,0.32 0.261,0.581 0.581,0.581z"/>
   <path class="fil22" d="M166.496 218.691l-0.408 0 0 0c-0.32,0 -0.581,-0.261 -0.581,-0.581l0 -0.563 1.57 0 0 0.563c0,0.32 -0.261,0.581 -0.581,0.581z"/>
   <path class="fil18" d="M172.947 218.691l-0.41 0c-0.371,0 -0.672,-0.301 -0.672,-0.672l0 -0.472 0.502 0 0 0.563c0,0.32 0.259,0.581 0.58,0.581z"/>
   <path class="fil22" d="M173.354 218.691l-0.407 0 0 0c-0.321,0 -0.58,-0.261 -0.58,-0.581l0 -0.563 1.567 0 0 0.563c0,0.32 -0.259,0.581 -0.58,0.581z"/>
   <path class="fil18" d="M179.805 218.691l-0.409 0c-0.373,0 -0.673,-0.301 -0.673,-0.672l0 -13.554c0,-0.371 0.3,-0.672 0.673,-0.672l0.725 0c0.372,0 0.673,0.301 0.673,0.672l0 0.151c0,-0.321 -0.26,-0.581 -0.581,-0.581l-0.408 0c-0.321,0 -0.58,0.26 -0.58,0.581l0 13.494c0,0.32 0.259,0.581 0.58,0.581z"/>
   <path class="fil22" d="M180.213 218.691l-0.408 0 0 0c-0.321,0 -0.58,-0.261 -0.58,-0.581l0 -13.494c0,-0.321 0.259,-0.581 0.58,-0.581l0.408 0c0.321,0 0.581,0.26 0.581,0.581l0 13.494c0,0.32 -0.26,0.581 -0.581,0.581z"/>
   <path class="fil18" d="M186.664 218.691l-0.41 0c-0.372,0 -0.673,-0.301 -0.673,-0.672l0 -13.554c0,-0.371 0.301,-0.672 0.673,-0.672l0.726 0c0.372,0 0.673,0.301 0.673,0.672l0 0.151c0,-0.321 -0.261,-0.581 -0.581,-0.581l-0.408 0c-0.32,0 -0.581,0.26 -0.581,0.581l0 13.494c0,0.32 0.261,0.581 0.581,0.581z"/>
   <path class="fil22" d="M187.072 218.691l-0.408 0 0 0c-0.32,0 -0.581,-0.261 -0.581,-0.581l0 -13.494c0,-0.321 0.261,-0.581 0.581,-0.581l0.408 0c0.32,0 0.581,0.26 0.581,0.581l0 13.494c0,0.32 -0.261,0.581 -0.581,0.581z"/>
   <path class="fil13" d="M271.341 205.778l0 10.901c0,1.428 -1.165,2.593 -2.609,2.593l-53.761 0c-1.118,0 -2.081,-0.715 -2.438,-1.724 -0.109,-0.263 -0.155,-0.559 -0.155,-0.869l0 -10.901c0,-1.429 1.164,-2.594 2.593,-2.594l53.761 0c0.311,0 0.59,0.047 0.87,0.155l0.326 0.14c0.636,0.311 1.118,0.885 1.304,1.584l0.078 0.341 0.031 0.374z"/>
   <path class="fil14" d="M268.742 219.273l-52.075 0c-1.335,0 -2.42,-1.082 -2.42,-2.417l0 -9.575c0,-1.336 1.085,-2.42 2.42,-2.42l52.251 0c1.336,0 2.42,1.084 2.42,2.42l0 9.398c0,1.434 -1.163,2.594 -2.596,2.594z"/>
   <path class="fil15" d="M222.033 216.508l-1.65 0c-0.438,0 -0.792,-0.354 -0.792,-0.793l0 -10.708c0,-0.438 0.354,-0.794 0.792,-0.794l1.65 0c0.437,0 0.793,0.356 0.793,0.794l0 10.708c0,0.439 -0.356,0.793 -0.793,0.793z"/>
   <path class="fil16" d="M215.563 216.508l-1.651 0c-0.438,0 -0.791,-0.354 -0.791,-0.793l0 -10.708c0,-0.438 0.353,-0.794 0.791,-0.794l1.651 0c0.438,0 0.792,0.356 0.792,0.794l0 10.708c0,0.439 -0.354,0.793 -0.792,0.793z"/>
   <path class="fil15" d="M228.989 216.508l-1.651 0c-0.437,0 -0.792,-0.354 -0.792,-0.793l0 -10.708c0,-0.438 0.355,-0.794 0.792,-0.794l1.651 0c0.438,0 0.792,0.356 0.792,0.794l0 10.708c0,0.439 -0.354,0.793 -0.792,0.793z"/>
   <path class="fil17" d="M235.751 216.508l-1.651 0c-0.438,0 -0.792,-0.354 -0.792,-0.793l0 -10.708c0,-0.438 0.354,-0.794 0.792,-0.794l1.651 0c0.437,0 0.792,0.356 0.792,0.794l0 10.708c0,0.439 -0.355,0.793 -0.792,0.793z"/>
   <path class="fil18" d="M218.214 218.691l-0.726 0c-0.372,0 -0.672,-0.301 -0.672,-0.672l0 -13.552c0,-0.371 0.3,-0.672 0.672,-0.672l0.726 0c0.371,0 0.672,0.301 0.672,0.672l0 13.552c0,0.371 -0.301,0.672 -0.672,0.672z"/>
   <path class="fil19" d="M218.305 218.691l-0.408 0c-0.32,0 -0.581,-0.259 -0.581,-0.581l0 -13.492c0,-0.322 0.261,-0.581 0.581,-0.581l0.408 0c0.322,0 0.581,0.259 0.581,0.581l0 13.492c0,0.322 -0.259,0.581 -0.581,0.581z"/>
   <path class="fil18" d="M225.073 218.691l-0.727 0c-0.371,0 -0.673,-0.301 -0.673,-0.672l0 -13.552c0,-0.371 0.302,-0.672 0.673,-0.672l0.727 0c0.371,0 0.672,0.301 0.672,0.672l0 13.552c0,0.371 -0.301,0.672 -0.672,0.672z"/>
   <path class="fil19" d="M225.164 218.691l-0.408 0c-0.32,0 -0.581,-0.259 -0.581,-0.581l0 -13.492c0,-0.322 0.261,-0.581 0.581,-0.581l0.408 0c0.32,0 0.581,0.259 0.581,0.581l0 13.492c0,0.322 -0.261,0.581 -0.581,0.581z"/>
   <path class="fil18" d="M231.93 218.691l-0.725 0c-0.371,0 -0.672,-0.301 -0.672,-0.672l0 -13.552c0,-0.371 0.301,-0.672 0.672,-0.672l0.725 0c0.372,0 0.672,0.301 0.672,0.672l0 13.552c0,0.371 -0.3,0.672 -0.672,0.672z"/>
   <path class="fil19" d="M232.022 218.691l-0.407 0c-0.321,0 -0.581,-0.259 -0.581,-0.581l0 -13.492c0,-0.322 0.26,-0.581 0.581,-0.581l0.407 0c0.321,0 0.58,0.259 0.58,0.581l0 13.492c0,0.322 -0.259,0.581 -0.58,0.581z"/>
   <path class="fil18" d="M238.79 218.691l-0.726 0c-0.371,0 -0.672,-0.301 -0.672,-0.672l0 -13.552c0,-0.371 0.301,-0.672 0.672,-0.672l0.726 0c0.37,0 0.672,0.301 0.672,0.672l0 13.552c0,0.371 -0.302,0.672 -0.672,0.672z"/>
   <path class="fil19" d="M238.881 218.691l-0.409 0c-0.32,0 -0.579,-0.259 -0.579,-0.581l0 -13.492c0,-0.322 0.259,-0.581 0.579,-0.581l0.409 0c0.321,0 0.581,0.259 0.581,0.581l0 13.492c0,0.322 -0.26,0.581 -0.581,0.581z"/>
   <path class="fil18" d="M245.648 218.691l-0.726 0c-0.372,0 -0.673,-0.301 -0.673,-0.672l0 -13.552c0,-0.371 0.301,-0.672 0.673,-0.672l0.726 0c0.372,0 0.673,0.301 0.673,0.672l0 13.552c0,0.371 -0.301,0.672 -0.673,0.672z"/>
   <path class="fil19" d="M245.74 218.691l-0.408 0c-0.32,0 -0.581,-0.259 -0.581,-0.581l0 -13.492c0,-0.322 0.261,-0.581 0.581,-0.581l0.408 0c0.32,0 0.581,0.259 0.581,0.581l0 13.492c0,0.322 -0.261,0.581 -0.581,0.581z"/>
   <path class="fil18" d="M252.506 218.691l-0.725 0c-0.371,0 -0.672,-0.301 -0.672,-0.672l0 -13.552c0,-0.371 0.301,-0.672 0.672,-0.672l0.725 0c0.371,0 0.672,0.301 0.672,0.672l0 13.552c0,0.371 -0.301,0.672 -0.672,0.672z"/>
   <path class="fil19" d="M252.598 218.691l-0.407 0c-0.322,0 -0.581,-0.259 -0.581,-0.581l0 -13.492c0,-0.322 0.259,-0.581 0.581,-0.581l0.407 0c0.321,0 0.58,0.259 0.58,0.581l0 13.492c0,0.322 -0.259,0.581 -0.58,0.581z"/>
   <path class="fil18" d="M259.365 218.691l-0.725 0c-0.373,0 -0.672,-0.301 -0.672,-0.672l0 -13.552c0,-0.371 0.299,-0.672 0.672,-0.672l0.725 0c0.371,0 0.673,0.301 0.673,0.672l0 13.552c0,0.371 -0.302,0.672 -0.673,0.672z"/>
   <path class="fil19" d="M259.457 218.691l-0.409 0c-0.32,0 -0.581,-0.259 -0.581,-0.581l0 -13.492c0,-0.322 0.261,-0.581 0.581,-0.581l0.409 0c0.321,0 0.581,0.259 0.581,0.581l0 13.492c0,0.322 -0.26,0.581 -0.581,0.581z"/>
   <path class="fil18" d="M266.224 218.691l-0.727 0c-0.371,0 -0.672,-0.301 -0.672,-0.672l0 -13.552c0,-0.371 0.301,-0.672 0.672,-0.672l0.727 0c0.371,0 0.673,0.301 0.673,0.672l0 13.552c0,0.371 -0.302,0.672 -0.673,0.672z"/>
   <path class="fil19" d="M266.316 218.691l-0.409 0c-0.319,0 -0.58,-0.259 -0.58,-0.581l0 -13.492c0,-0.322 0.261,-0.581 0.58,-0.581l0.409 0c0.32,0 0.581,0.259 0.581,0.581l0 13.492c0,0.322 -0.261,0.581 -0.581,0.581z"/>
   <path class="fil20" d="M216.568 219.272l-1.597 0c-1.118,0 -2.081,-0.715 -2.438,-1.724l1.815 0c0.289,0.968 1.168,1.68 2.22,1.724zm54.329 -1.146c0.278,-0.413 0.441,-0.912 0.441,-1.447l0 -9.398c0,-1.336 -1.084,-2.42 -2.42,-2.42l-2.021 0 0 -0.394c0,-0.371 -0.302,-0.672 -0.673,-0.672l-0.727 0c-0.371,0 -0.672,0.301 -0.672,0.672l0 0.394 -4.787 0 0 -0.394c0,-0.371 -0.302,-0.672 -0.673,-0.672l-0.725 0c-0.373,0 -0.672,0.301 -0.672,0.672l0 0.394 -1.263 0c-0.309,-0.595 -0.821,-1.09 -1.436,-1.413l-0.513 -0.264 6.3 0 7.676 0c0.311,0 0.59,0.047 0.87,0.155l0.326 0.14c0.636,0.311 1.118,0.885 1.304,1.584l0.078 0.341 0.031 0.374 0 10.901c0,0.535 -0.165,1.034 -0.444,1.447z"/>
   <path class="fil21" d="M268.732 219.272l-52.164 0 0 0c-1.052,-0.044 -1.931,-0.756 -2.22,-1.724l2.468 0 0 0.471c0,0.371 0.3,0.672 0.672,0.672l0.409 0 0.408 0c0.322,0 0.581,-0.259 0.581,-0.581l0 -0.562 4.787 0 0 0.471c0,0.371 0.302,0.672 0.673,0.672l0.41 0 0.408 0c0.32,0 0.581,-0.259 0.581,-0.581l0 -0.562 4.788 0 0 0.471c0,0.371 0.301,0.672 0.672,0.672l0.41 0 0.407 0c0.321,0 0.58,-0.259 0.58,-0.581l0 -0.562 4.79 0 0 0.471c0,0.371 0.301,0.672 0.672,0.672l0.408 0 0.409 0c0.321,0 0.581,-0.259 0.581,-0.581l0 -0.562 4.787 0 0 0.471c0,0.371 0.301,0.672 0.673,0.672l0.41 0 0.408 0c0.32,0 0.581,-0.259 0.581,-0.581l0 -0.562 4.788 0 0 0.471c0,0.371 0.301,0.672 0.672,0.672l0.41 0 0.407 0c0.321,0 0.58,-0.259 0.58,-0.581l0 -0.562 0.957 0c1.599,0 2.888,-1.289 2.888,-2.888l0 -8.556c-0.006,-0.442 -0.121,-0.862 -0.318,-1.243l1.263 0 0 13.158c0,0.371 0.299,0.672 0.672,0.672l0.408 0 0.409 0c0.321,0 0.581,-0.259 0.581,-0.581l0 -13.249 4.787 0 0 13.158c0,0.371 0.301,0.672 0.672,0.672l0.41 0 0.409 0c0.32,0 0.581,-0.259 0.581,-0.581l0 -13.249 2.021 0c1.336,0 2.42,1.084 2.42,2.42l0 9.398c0,0.535 -0.163,1.034 -0.441,1.447l0 0c-0.469,0.691 -1.263,1.146 -2.165,1.146z"/>
   <path class="fil18" d="M217.897 218.691l-0.409 0c-0.372,0 -0.672,-0.301 -0.672,-0.672l0 -0.471 0.5 0 0 0.562c0,0.322 0.261,0.581 0.581,0.581z"/>
   <path class="fil22" d="M218.305 218.691l-0.408 0 0 0c-0.32,0 -0.581,-0.259 -0.581,-0.581l0 -0.562 1.57 0 0 0.562c0,0.322 -0.259,0.581 -0.581,0.581z"/>
   <path class="fil18" d="M224.756 218.691l-0.41 0c-0.371,0 -0.673,-0.301 -0.673,-0.672l0 -0.471 0.502 0 0 0.562c0,0.322 0.261,0.581 0.581,0.581z"/>
   <path class="fil22" d="M225.164 218.691l-0.408 0 0 0c-0.32,0 -0.581,-0.259 -0.581,-0.581l0 -0.562 1.57 0 0 0.562c0,0.322 -0.261,0.581 -0.581,0.581z"/>
   <path class="fil18" d="M231.615 218.691l-0.41 0c-0.371,0 -0.672,-0.301 -0.672,-0.672l0 -0.471 0.501 0 0 0.562c0,0.322 0.26,0.581 0.581,0.581z"/>
   <path class="fil22" d="M232.022 218.691l-0.407 0 0 0c-0.321,0 -0.581,-0.259 -0.581,-0.581l0 -0.562 1.568 0 0 0.562c0,0.322 -0.259,0.581 -0.58,0.581z"/>
   <path class="fil18" d="M238.472 218.691l-0.408 0c-0.371,0 -0.672,-0.301 -0.672,-0.672l0 -0.471 0.501 0 0 0.562c0,0.322 0.259,0.581 0.579,0.581z"/>
   <path class="fil22" d="M238.881 218.691l-0.409 0 0 0c-0.32,0 -0.579,-0.259 -0.579,-0.581l0 -0.562 1.569 0 0 0.562c0,0.322 -0.26,0.581 -0.581,0.581z"/>
   <path class="fil18" d="M245.332 218.691l-0.41 0c-0.372,0 -0.673,-0.301 -0.673,-0.672l0 -0.471 0.502 0 0 0.562c0,0.322 0.261,0.581 0.581,0.581z"/>
   <path class="fil22" d="M245.74 218.691l-0.408 0 0 0c-0.32,0 -0.581,-0.259 -0.581,-0.581l0 -0.562 1.57 0 0 0.562c0,0.322 -0.261,0.581 -0.581,0.581z"/>
   <path class="fil18" d="M252.191 218.691l-0.41 0c-0.371,0 -0.672,-0.301 -0.672,-0.672l0 -0.471 0.501 0 0 0.562c0,0.322 0.259,0.581 0.581,0.581z"/>
   <path class="fil22" d="M252.598 218.691l-0.407 0 0 0c-0.322,0 -0.581,-0.259 -0.581,-0.581l0 -0.562 1.568 0 0 0.562c0,0.322 -0.259,0.581 -0.58,0.581z"/>
   <path class="fil18" d="M259.048 218.691l-0.408 0c-0.373,0 -0.672,-0.301 -0.672,-0.672l0 -13.552c0,-0.371 0.299,-0.672 0.672,-0.672l0.725 0c0.371,0 0.673,0.301 0.673,0.672l0 0.151c0,-0.322 -0.26,-0.581 -0.581,-0.581l-0.409 0c-0.32,0 -0.581,0.259 -0.581,0.581l0 13.492c0,0.322 0.261,0.581 0.581,0.581z"/>
   <path class="fil22" d="M259.457 218.691l-0.409 0 0 0c-0.32,0 -0.581,-0.259 -0.581,-0.581l0 -13.492c0,-0.322 0.261,-0.581 0.581,-0.581l0.409 0c0.321,0 0.581,0.259 0.581,0.581l0 13.492c0,0.322 -0.26,0.581 -0.581,0.581z"/>
   <path class="fil18" d="M265.907 218.691l-0.41 0c-0.371,0 -0.672,-0.301 -0.672,-0.672l0 -13.552c0,-0.371 0.301,-0.672 0.672,-0.672l0.727 0c0.371,0 0.673,0.301 0.673,0.672l0 0.151c0,-0.322 -0.261,-0.581 -0.581,-0.581l-0.409 0c-0.319,0 -0.58,0.259 -0.58,0.581l0 13.492c0,0.322 0.261,0.581 0.58,0.581z"/>
   <path class="fil22" d="M266.316 218.691l-0.409 0 0 0c-0.319,0 -0.58,-0.259 -0.58,-0.581l0 -13.492c0,-0.322 0.261,-0.581 0.58,-0.581l0.409 0c0.32,0 0.581,0.259 0.581,0.581l0 13.492c0,0.322 -0.261,0.581 -0.581,0.581z"/>
   <path class="fil13" d="M263.648 189.687l0 10.902c0,1.429 -1.164,2.594 -2.609,2.594l-53.761 0c-1.118,0 -2.081,-0.715 -2.438,-1.724 -0.108,-0.264 -0.155,-0.559 -0.155,-0.87l0 -10.902c0,-1.428 1.165,-2.593 2.593,-2.593l53.761 0c0.311,0 0.59,0.047 0.87,0.156l0.326 0.14c0.637,0.31 1.118,0.885 1.305,1.583l0.077 0.342 0.031 0.372z"/>
   <path class="fil14" d="M261.056 203.184l-52.081 0c-1.337,0 -2.419,-1.082 -2.419,-2.42l0 -9.573c0,-1.337 1.082,-2.42 2.419,-2.42l52.25 0c1.336,0 2.42,1.083 2.42,2.42l0 9.405c0,1.43 -1.16,2.588 -2.589,2.588z"/>
   <path class="fil15" d="M214.341 200.418l-1.651 0c-0.438,0 -0.792,-0.355 -0.792,-0.793l0 -10.709c0,-0.438 0.354,-0.792 0.792,-0.792l1.651 0c0.437,0 0.792,0.354 0.792,0.792l0 10.709c0,0.438 -0.355,0.793 -0.792,0.793z"/>
   <path class="fil16" d="M207.87 200.418l-1.649 0c-0.438,0 -0.794,-0.355 -0.794,-0.793l0 -10.709c0,-0.438 0.356,-0.792 0.794,-0.792l1.649 0c0.438,0 0.794,0.354 0.794,0.792l0 10.709c0,0.438 -0.356,0.793 -0.794,0.793z"/>
   <path class="fil15" d="M221.296 200.418l-1.651 0c-0.436,0 -0.792,-0.355 -0.792,-0.793l0 -10.709c0,-0.438 0.356,-0.792 0.792,-0.792l1.651 0c0.438,0 0.792,0.354 0.792,0.792l0 10.709c0,0.438 -0.354,0.793 -0.792,0.793z"/>
   <path class="fil17" d="M228.057 200.418l-1.649 0c-0.438,0 -0.794,-0.355 -0.794,-0.793l0 -10.709c0,-0.438 0.356,-0.792 0.794,-0.792l1.649 0c0.438,0 0.794,0.354 0.794,0.792l0 10.709c0,0.438 -0.356,0.793 -0.794,0.793z"/>
   <path class="fil18" d="M210.52 202.602l-0.724 0c-0.372,0 -0.673,-0.302 -0.673,-0.672l0 -13.554c0,-0.372 0.301,-0.673 0.673,-0.673l0.724 0c0.372,0 0.673,0.301 0.673,0.673l0 13.554c0,0.37 -0.301,0.672 -0.673,0.672z"/>
   <path class="fil19" d="M210.612 202.602l-0.406 0c-0.322,0 -0.581,-0.261 -0.581,-0.581l0 -13.495c0,-0.32 0.259,-0.581 0.581,-0.581l0.406 0c0.322,0 0.581,0.261 0.581,0.581l0 13.495c0,0.32 -0.259,0.581 -0.581,0.581z"/>
   <path class="fil18" d="M217.38 202.602l-0.726 0c-0.372,0 -0.673,-0.302 -0.673,-0.672l0 -13.554c0,-0.372 0.301,-0.673 0.673,-0.673l0.726 0c0.371,0 0.672,0.301 0.672,0.673l0 13.554c0,0.37 -0.301,0.672 -0.672,0.672z"/>
   <path class="fil19" d="M217.471 202.602l-0.408 0c-0.32,0 -0.579,-0.261 -0.579,-0.581l0 -13.495c0,-0.32 0.259,-0.581 0.579,-0.581l0.408 0c0.32,0 0.581,0.261 0.581,0.581l0 13.495c0,0.32 -0.261,0.581 -0.581,0.581z"/>
   <path class="fil18" d="M224.237 202.602l-0.724 0c-0.373,0 -0.673,-0.302 -0.673,-0.672l0 -13.554c0,-0.372 0.3,-0.673 0.673,-0.673l0.724 0c0.373,0 0.673,0.301 0.673,0.673l0 13.554c0,0.37 -0.3,0.672 -0.673,0.672z"/>
   <path class="fil19" d="M224.33 202.602l-0.408 0c-0.321,0 -0.581,-0.261 -0.581,-0.581l0 -13.495c0,-0.32 0.26,-0.581 0.581,-0.581l0.408 0c0.32,0 0.58,0.261 0.58,0.581l0 13.495c0,0.32 -0.26,0.581 -0.58,0.581z"/>
   <path class="fil18" d="M231.096 202.602l-0.725 0c-0.371,0 -0.672,-0.302 -0.672,-0.672l0 -13.554c0,-0.372 0.301,-0.673 0.672,-0.673l0.725 0c0.371,0 0.673,0.301 0.673,0.673l0 13.554c0,0.37 -0.302,0.672 -0.673,0.672z"/>
   <path class="fil19" d="M231.188 202.602l-0.407 0c-0.321,0 -0.58,-0.261 -0.58,-0.581l0 -13.495c0,-0.32 0.259,-0.581 0.58,-0.581l0.407 0c0.322,0 0.581,0.261 0.581,0.581l0 13.495c0,0.32 -0.259,0.581 -0.581,0.581z"/>
   <path class="fil18" d="M237.955 202.602l-0.726 0c-0.372,0 -0.672,-0.302 -0.672,-0.672l0 -13.554c0,-0.372 0.3,-0.673 0.672,-0.673l0.726 0c0.372,0 0.673,0.301 0.673,0.673l0 13.554c0,0.37 -0.301,0.672 -0.673,0.672z"/>
   <path class="fil19" d="M238.047 202.602l-0.408 0c-0.32,0 -0.58,-0.261 -0.58,-0.581l0 -13.495c0,-0.32 0.26,-0.581 0.58,-0.581l0.408 0c0.32,0 0.581,0.261 0.581,0.581l0 13.495c0,0.32 -0.261,0.581 -0.581,0.581z"/>
   <path class="fil18" d="M244.813 202.602l-0.725 0c-0.371,0 -0.673,-0.302 -0.673,-0.672l0 -13.554c0,-0.372 0.302,-0.673 0.673,-0.673l0.725 0c0.373,0 0.674,0.301 0.674,0.673l0 13.554c0,0.37 -0.301,0.672 -0.674,0.672z"/>
   <path class="fil19" d="M244.907 202.602l-0.409 0c-0.321,0 -0.581,-0.261 -0.581,-0.581l0 -13.495c0,-0.32 0.26,-0.581 0.581,-0.581l0.409 0c0.319,0 0.58,0.261 0.58,0.581l0 13.495c0,0.32 -0.261,0.581 -0.58,0.581z"/>
   <path class="fil18" d="M251.672 202.602l-0.725 0c-0.371,0 -0.672,-0.302 -0.672,-0.672l0 -13.554c0,-0.372 0.301,-0.673 0.672,-0.673l0.725 0c0.371,0 0.673,0.301 0.673,0.673l0 13.554c0,0.37 -0.302,0.672 -0.673,0.672z"/>
   <path class="fil19" d="M251.763 202.602l-0.406 0c-0.322,0 -0.581,-0.261 -0.581,-0.581l0 -13.495c0,-0.32 0.259,-0.581 0.581,-0.581l0.406 0c0.322,0 0.582,0.261 0.582,0.581l0 13.495c0,0.32 -0.26,0.581 -0.582,0.581z"/>
   <path class="fil18" d="M258.531 202.602l-0.725 0c-0.373,0 -0.674,-0.302 -0.674,-0.672l0 -13.554c0,-0.372 0.301,-0.673 0.674,-0.673l0.725 0c0.372,0 0.673,0.301 0.673,0.673l0 13.554c0,0.37 -0.301,0.672 -0.673,0.672z"/>
   <path class="fil19" d="M258.623 202.602l-0.408 0c-0.32,0 -0.581,-0.261 -0.581,-0.581l0 -13.495c0,-0.32 0.261,-0.581 0.581,-0.581l0.408 0c0.32,0 0.581,0.261 0.581,0.581l0 13.495c0,0.32 -0.261,0.581 -0.581,0.581z"/>
   <path class="fil20" d="M208.87 203.183l-1.592 0c-1.118,0 -2.081,-0.715 -2.438,-1.724l1.817 0c0.288,0.965 1.163,1.679 2.213,1.724zm54.635 -1.746c0.09,-0.264 0.14,-0.547 0.14,-0.841l0 -9.405c0,-1.337 -1.084,-2.42 -2.42,-2.42l-2.021 0 0 -0.395c0,-0.372 -0.301,-0.673 -0.673,-0.673l-0.725 0c-0.373,0 -0.674,0.301 -0.674,0.673l0 0.395 -4.787 0 0 -0.395c0,-0.372 -0.302,-0.673 -0.673,-0.673l-0.725 0c-0.371,0 -0.672,0.301 -0.672,0.673l0 0.395 -1.263 0c-0.309,-0.596 -0.82,-1.091 -1.436,-1.412l-0.513 -0.265 11.398 0 2.578 0c0.311,0 0.59,0.047 0.87,0.156l0.326 0.14c0.637,0.31 1.118,0.885 1.305,1.583l0.077 0.342 0.031 0.372 0 10.902c0,0.16 -0.016,0.317 -0.043,0.469 -0.023,0.13 -0.058,0.256 -0.1,0.379z"/>
   <path class="fil21" d="M261.039 203.183l-52.169 0 0 0c-1.05,-0.045 -1.925,-0.759 -2.213,-1.724l2.466 0 0 0.471c0,0.37 0.301,0.672 0.673,0.672l0.41 0 0.406 0c0.322,0 0.581,-0.261 0.581,-0.581l0 -0.562 4.788 0 0 0.471c0,0.37 0.301,0.672 0.673,0.672l0.409 0 0.408 0c0.32,0 0.581,-0.261 0.581,-0.581l0 -0.562 4.788 0 0 0.471c0,0.37 0.3,0.672 0.673,0.672l0.409 0 0.408 0c0.32,0 0.58,-0.261 0.58,-0.581l0 -0.562 4.789 0 0 0.471c0,0.37 0.301,0.672 0.672,0.672l0.41 0 0.407 0c0.322,0 0.581,-0.261 0.581,-0.581l0 -0.562 4.788 0 0 0.471c0,0.37 0.3,0.672 0.672,0.672l0.41 0 0.408 0c0.32,0 0.581,-0.261 0.581,-0.581l0 -0.562 4.787 0 0 0.471c0,0.37 0.302,0.672 0.673,0.672l0.41 0 0.409 0c0.319,0 0.58,-0.261 0.58,-0.581l0 -0.562 0.955 0c1.599,0 2.888,-1.289 2.888,-2.888l0 -8.557c-0.006,-0.442 -0.121,-0.863 -0.318,-1.243l1.263 0 0 13.159c0,0.37 0.301,0.672 0.672,0.672l0.41 0 0.406 0c0.322,0 0.582,-0.261 0.582,-0.581l0 -13.25 4.787 0 0 13.159c0,0.37 0.301,0.672 0.674,0.672l0.409 0 0.408 0c0.32,0 0.581,-0.261 0.581,-0.581l0 -13.25 2.021 0c1.336,0 2.42,1.083 2.42,2.42l0 9.405c0,0.294 -0.05,0.577 -0.14,0.841l0 0c-0.354,1.014 -1.321,1.746 -2.466,1.746z"/>
   <path class="fil18" d="M210.206 202.602l-0.41 0c-0.372,0 -0.673,-0.302 -0.673,-0.672l0 -0.471 0.502 0 0 0.562c0,0.32 0.259,0.581 0.581,0.581z"/>
   <path class="fil22" d="M210.612 202.602l-0.406 0 0 0c-0.322,0 -0.581,-0.261 -0.581,-0.581l0 -0.562 1.568 0 0 0.562c0,0.32 -0.259,0.581 -0.581,0.581z"/>
   <path class="fil18" d="M217.063 202.602l-0.409 0c-0.372,0 -0.673,-0.302 -0.673,-0.672l0 -0.471 0.503 0 0 0.562c0,0.32 0.259,0.581 0.579,0.581z"/>
   <path class="fil22" d="M217.471 202.602l-0.408 0 0 0c-0.32,0 -0.579,-0.261 -0.579,-0.581l0 -0.562 1.568 0 0 0.562c0,0.32 -0.261,0.581 -0.581,0.581z"/>
   <path class="fil18" d="M223.922 202.602l-0.409 0c-0.373,0 -0.673,-0.302 -0.673,-0.672l0 -0.471 0.501 0 0 0.562c0,0.32 0.26,0.581 0.581,0.581z"/>
   <path class="fil22" d="M224.33 202.602l-0.408 0 0 0c-0.321,0 -0.581,-0.261 -0.581,-0.581l0 -0.562 1.569 0 0 0.562c0,0.32 -0.26,0.581 -0.58,0.581z"/>
   <path class="fil18" d="M230.781 202.602l-0.41 0c-0.371,0 -0.672,-0.302 -0.672,-0.672l0 -0.471 0.502 0 0 0.562c0,0.32 0.259,0.581 0.58,0.581z"/>
   <path class="fil22" d="M231.188 202.602l-0.407 0 0 0c-0.321,0 -0.58,-0.261 -0.58,-0.581l0 -0.562 1.568 0 0 0.562c0,0.32 -0.259,0.581 -0.581,0.581z"/>
   <path class="fil18" d="M237.639 202.602l-0.41 0c-0.372,0 -0.672,-0.302 -0.672,-0.672l0 -0.471 0.502 0 0 0.562c0,0.32 0.26,0.581 0.58,0.581z"/>
   <path class="fil22" d="M238.047 202.602l-0.408 0 0 0c-0.32,0 -0.58,-0.261 -0.58,-0.581l0 -0.562 1.569 0 0 0.562c0,0.32 -0.261,0.581 -0.581,0.581z"/>
   <path class="fil18" d="M244.498 202.602l-0.41 0c-0.371,0 -0.673,-0.302 -0.673,-0.672l0 -0.471 0.502 0 0 0.562c0,0.32 0.26,0.581 0.581,0.581z"/>
   <path class="fil22" d="M244.907 202.602l-0.409 0 0 0c-0.321,0 -0.581,-0.261 -0.581,-0.581l0 -0.562 1.57 0 0 0.562c0,0.32 -0.261,0.581 -0.58,0.581z"/>
   <path class="fil18" d="M251.357 202.602l-0.41 0c-0.371,0 -0.672,-0.302 -0.672,-0.672l0 -13.554c0,-0.372 0.301,-0.673 0.672,-0.673l0.725 0c0.371,0 0.673,0.301 0.673,0.673l0 0.15c0,-0.32 -0.26,-0.581 -0.582,-0.581l-0.406 0c-0.322,0 -0.581,0.261 -0.581,0.581l0 13.495c0,0.32 0.259,0.581 0.581,0.581z"/>
   <path class="fil22" d="M251.763 202.602l-0.406 0 0 0c-0.322,0 -0.581,-0.261 -0.581,-0.581l0 -13.495c0,-0.32 0.259,-0.581 0.581,-0.581l0.406 0c0.322,0 0.582,0.261 0.582,0.581l0 13.495c0,0.32 -0.26,0.581 -0.582,0.581z"/>
   <path class="fil18" d="M258.215 202.602l-0.409 0c-0.373,0 -0.674,-0.302 -0.674,-0.672l0 -13.554c0,-0.372 0.301,-0.673 0.674,-0.673l0.725 0c0.372,0 0.673,0.301 0.673,0.673l0 0.15c0,-0.32 -0.261,-0.581 -0.581,-0.581l-0.408 0c-0.32,0 -0.581,0.261 -0.581,0.581l0 13.495c0,0.32 0.261,0.581 0.581,0.581z"/>
   <path class="fil22" d="M258.623 202.602l-0.408 0 0 0c-0.32,0 -0.581,-0.261 -0.581,-0.581l0 -13.495c0,-0.32 0.261,-0.581 0.581,-0.581l0.408 0c0.32,0 0.581,0.261 0.581,0.581l0 13.495c0,0.32 -0.261,0.581 -0.581,0.581z"/>
   <path class="fil13" d="M261.05 173.597l0 10.901c0,1.429 -1.165,2.593 -2.609,2.593l-53.761 0c-1.118,0 -2.081,-0.714 -2.437,-1.723 -0.11,-0.264 -0.156,-0.559 -0.156,-0.87l0 -10.901c0,-1.429 1.165,-2.593 2.593,-2.593l53.761 0c0.31,0 0.59,0.046 0.87,0.155l0.326 0.14c0.637,0.31 1.118,0.884 1.305,1.584l0.077 0.341 0.031 0.373z"/>
   <path class="fil14" d="M258.461 187.094l-52.085 0c-1.335,0 -2.42,-1.083 -2.42,-2.419l0 -9.575c0,-1.335 1.085,-2.419 2.42,-2.419l52.25 0c1.337,0 2.421,1.084 2.421,2.419l0 9.409c0,1.427 -1.158,2.585 -2.586,2.585z"/>
   <path class="fil20" d="M206.271 187.091l-1.591 0c-1.118,0 -2.081,-0.714 -2.437,-1.723l1.815 0c0.289,0.966 1.164,1.678 2.213,1.723zm54.698 -1.953c0.05,-0.2 0.078,-0.412 0.078,-0.629l0 -9.409c0,-1.335 -1.084,-2.419 -2.421,-2.419l-2.02 0 0 -0.395c0,-0.371 -0.301,-0.672 -0.673,-0.672l-0.727 0c-0.371,0 -0.672,0.301 -0.672,0.672l0 0.395 -4.787 0 0 -0.395c0,-0.371 -0.302,-0.672 -0.673,-0.672l-0.725 0c-0.373,0 -0.673,0.301 -0.673,0.672l0 0.395 -1.262 0c-0.309,-0.595 -0.821,-1.09 -1.437,-1.414l-0.512 -0.263 13.976 0c0.31,0 0.59,0.046 0.87,0.155l0.326 0.14c0.637,0.31 1.118,0.884 1.305,1.584l0.077 0.341 0.031 0.373 0 10.901c0,0.221 -0.028,0.437 -0.081,0.64z"/>
   <path class="fil21" d="M258.441 187.091l-52.17 0 0 0c-1.049,-0.045 -1.924,-0.757 -2.213,-1.723l2.467 0 0 0.47c0,0.373 0.3,0.674 0.672,0.674l0.409 0 0.408 0c0.322,0 0.581,-0.26 0.581,-0.58l0 -0.564 4.788 0 0 0.47c0,0.373 0.301,0.674 0.672,0.674l0.41 0 0.408 0c0.32,0 0.581,-0.26 0.581,-0.58l0 -0.564 4.787 0 0 0.47c0,0.373 0.302,0.674 0.673,0.674l0.41 0 0.407 0c0.321,0 0.581,-0.26 0.581,-0.58l0 -0.564 4.789 0 0 0.47c0,0.373 0.3,0.674 0.672,0.674l0.409 0 0.408 0c0.32,0 0.581,-0.26 0.581,-0.58l0 -0.564 4.787 0 0 0.47c0,0.373 0.301,0.674 0.672,0.674l0.411 0 0.408 0c0.32,0 0.581,-0.26 0.581,-0.58l0 -0.564 4.788 0 0 0.47c0,0.373 0.301,0.674 0.672,0.674l0.41 0 0.406 0c0.322,0 0.581,-0.26 0.581,-0.58l0 -0.564 0.957 0c1.599,0 2.889,-1.289 2.889,-2.888l0 -8.557c-0.007,-0.441 -0.122,-0.861 -0.319,-1.242l1.262 0 0 13.157c0,0.373 0.3,0.674 0.673,0.674l0.409 0 0.408 0c0.32,0 0.581,-0.26 0.581,-0.58l0 -13.251 4.787 0 0 13.157c0,0.373 0.301,0.674 0.672,0.674l0.411 0 0.408 0c0.319,0 0.581,-0.26 0.581,-0.58l0 -13.251 2.02 0c1.337,0 2.421,1.084 2.421,2.419l0 9.409c0,0.217 -0.028,0.429 -0.078,0.629l0 0c-0.287,1.121 -1.307,1.953 -2.528,1.953z"/>
   <path class="fil15" d="M211.741 184.328l-1.649 0c-0.438,0 -0.792,-0.355 -0.792,-0.793l0 -10.708c0,-0.438 0.354,-0.792 0.792,-0.792l1.649 0c0.438,0 0.794,0.354 0.794,0.792l0 10.708c0,0.438 -0.356,0.793 -0.794,0.793z"/>
   <path class="fil16" d="M205.272 184.328l-1.651 0c-0.438,0 -0.792,-0.355 -0.792,-0.793l0 -10.708c0,-0.438 0.354,-0.792 0.792,-0.792l1.651 0c0.438,0 0.791,0.354 0.791,0.792l0 10.708c0,0.438 -0.353,0.793 -0.791,0.793z"/>
   <path class="fil15" d="M218.698 184.328l-1.651 0c-0.437,0 -0.792,-0.355 -0.792,-0.793l0 -10.708c0,-0.438 0.355,-0.792 0.792,-0.792l1.651 0c0.438,0 0.792,0.354 0.792,0.792l0 10.708c0,0.438 -0.354,0.793 -0.792,0.793z"/>
   <path class="fil17" d="M225.459 184.328l-1.651 0c-0.437,0 -0.792,-0.355 -0.792,-0.793l0 -10.708c0,-0.438 0.355,-0.792 0.792,-0.792l1.651 0c0.438,0 0.793,0.354 0.793,0.792l0 10.708c0,0.438 -0.355,0.793 -0.793,0.793z"/>
   <path class="fil18" d="M207.923 186.512l-0.726 0c-0.372,0 -0.672,-0.301 -0.672,-0.674l0 -13.552c0,-0.371 0.3,-0.672 0.672,-0.672l0.726 0c0.37,0 0.672,0.301 0.672,0.672l0 13.552c0,0.373 -0.302,0.674 -0.672,0.674z"/>
   <path class="fil19" d="M208.014 186.512l-0.408 0c-0.32,0 -0.581,-0.26 -0.581,-0.58l0 -13.495c0,-0.321 0.261,-0.581 0.581,-0.581l0.408 0c0.322,0 0.581,0.26 0.581,0.581l0 13.495c0,0.32 -0.259,0.58 -0.581,0.58z"/>
   <path class="fil18" d="M214.782 186.512l-0.727 0c-0.371,0 -0.672,-0.301 -0.672,-0.674l0 -13.552c0,-0.371 0.301,-0.672 0.672,-0.672l0.727 0c0.371,0 0.672,0.301 0.672,0.672l0 13.552c0,0.373 -0.301,0.674 -0.672,0.674z"/>
   <path class="fil19" d="M214.873 186.512l-0.408 0c-0.32,0 -0.581,-0.26 -0.581,-0.58l0 -13.495c0,-0.321 0.261,-0.581 0.581,-0.581l0.408 0c0.32,0 0.581,0.26 0.581,0.581l0 13.495c0,0.32 -0.261,0.58 -0.581,0.58z"/>
   <path class="fil18" d="M221.639 186.512l-0.725 0c-0.371,0 -0.673,-0.301 -0.673,-0.674l0 -13.552c0,-0.371 0.302,-0.672 0.673,-0.672l0.725 0c0.371,0 0.673,0.301 0.673,0.672l0 13.552c0,0.373 -0.302,0.674 -0.673,0.674z"/>
   <path class="fil19" d="M221.731 186.512l-0.407 0c-0.321,0 -0.581,-0.26 -0.581,-0.58l0 -13.495c0,-0.321 0.26,-0.581 0.581,-0.581l0.407 0c0.321,0 0.581,0.26 0.581,0.581l0 13.495c0,0.32 -0.26,0.58 -0.581,0.58z"/>
   <path class="fil18" d="M228.499 186.512l-0.726 0c-0.372,0 -0.672,-0.301 -0.672,-0.674l0 -13.552c0,-0.371 0.3,-0.672 0.672,-0.672l0.726 0c0.37,0 0.672,0.301 0.672,0.672l0 13.552c0,0.373 -0.302,0.674 -0.672,0.674z"/>
   <path class="fil19" d="M228.59 186.512l-0.408 0c-0.32,0 -0.581,-0.26 -0.581,-0.58l0 -13.495c0,-0.321 0.261,-0.581 0.581,-0.581l0.408 0c0.32,0 0.581,0.26 0.581,0.581l0 13.495c0,0.32 -0.261,0.58 -0.581,0.58z"/>
   <path class="fil18" d="M235.357 186.512l-0.727 0c-0.371,0 -0.672,-0.301 -0.672,-0.674l0 -13.552c0,-0.371 0.301,-0.672 0.672,-0.672l0.727 0c0.372,0 0.673,0.301 0.673,0.672l0 13.552c0,0.373 -0.301,0.674 -0.673,0.674z"/>
   <path class="fil19" d="M235.449 186.512l-0.408 0c-0.322,0 -0.581,-0.26 -0.581,-0.58l0 -13.495c0,-0.321 0.259,-0.581 0.581,-0.581l0.408 0c0.32,0 0.581,0.26 0.581,0.581l0 13.495c0,0.32 -0.261,0.58 -0.581,0.58z"/>
   <path class="fil18" d="M242.215 186.512l-0.725 0c-0.371,0 -0.672,-0.301 -0.672,-0.674l0 -13.552c0,-0.371 0.301,-0.672 0.672,-0.672l0.725 0c0.371,0 0.672,0.301 0.672,0.672l0 13.552c0,0.373 -0.301,0.674 -0.672,0.674z"/>
   <path class="fil19" d="M242.306 186.512l-0.406 0c-0.321,0 -0.581,-0.26 -0.581,-0.58l0 -13.495c0,-0.321 0.26,-0.581 0.581,-0.581l0.406 0c0.322,0 0.581,0.26 0.581,0.581l0 13.495c0,0.32 -0.259,0.58 -0.581,0.58z"/>
   <path class="fil18" d="M249.074 186.512l-0.725 0c-0.373,0 -0.673,-0.301 -0.673,-0.674l0 -13.552c0,-0.371 0.3,-0.672 0.673,-0.672l0.725 0c0.371,0 0.673,0.301 0.673,0.672l0 13.552c0,0.373 -0.302,0.674 -0.673,0.674z"/>
   <path class="fil19" d="M249.166 186.512l-0.408 0c-0.321,0 -0.582,-0.26 -0.582,-0.58l0 -13.495c0,-0.321 0.261,-0.581 0.582,-0.581l0.408 0c0.32,0 0.581,0.26 0.581,0.581l0 13.495c0,0.32 -0.261,0.58 -0.581,0.58z"/>
   <path class="fil18" d="M255.933 186.512l-0.727 0c-0.371,0 -0.672,-0.301 -0.672,-0.674l0 -13.552c0,-0.371 0.301,-0.672 0.672,-0.672l0.727 0c0.372,0 0.673,0.301 0.673,0.672l0 13.552c0,0.373 -0.301,0.674 -0.673,0.674z"/>
   <path class="fil19" d="M256.025 186.512l-0.408 0c-0.322,0 -0.581,-0.26 -0.581,-0.58l0 -13.495c0,-0.321 0.259,-0.581 0.581,-0.581l0.408 0c0.319,0 0.581,0.26 0.581,0.581l0 13.495c0,0.32 -0.262,0.58 -0.581,0.58z"/>
   <path class="fil18" d="M207.606 186.512l-0.409 0c-0.372,0 -0.672,-0.301 -0.672,-0.674l0 -0.47 0.5 0 0 0.564c0,0.32 0.261,0.58 0.581,0.58z"/>
   <path class="fil22" d="M208.014 186.512l-0.408 0 0 0c-0.32,0 -0.581,-0.26 -0.581,-0.58l0 -0.564 1.57 0 0 0.564c0,0.32 -0.259,0.58 -0.581,0.58z"/>
   <path class="fil18" d="M214.465 186.512l-0.41 0c-0.371,0 -0.672,-0.301 -0.672,-0.674l0 -0.47 0.501 0 0 0.564c0,0.32 0.261,0.58 0.581,0.58z"/>
   <path class="fil22" d="M214.873 186.512l-0.408 0 0 0c-0.32,0 -0.581,-0.26 -0.581,-0.58l0 -0.564 1.57 0 0 0.564c0,0.32 -0.261,0.58 -0.581,0.58z"/>
   <path class="fil18" d="M221.324 186.512l-0.41 0c-0.371,0 -0.673,-0.301 -0.673,-0.674l0 -0.47 0.502 0 0 0.564c0,0.32 0.26,0.58 0.581,0.58z"/>
   <path class="fil22" d="M221.731 186.512l-0.407 0 0 0c-0.321,0 -0.581,-0.26 -0.581,-0.58l0 -0.564 1.569 0 0 0.564c0,0.32 -0.26,0.58 -0.581,0.58z"/>
   <path class="fil18" d="M228.182 186.512l-0.409 0c-0.372,0 -0.672,-0.301 -0.672,-0.674l0 -0.47 0.5 0 0 0.564c0,0.32 0.261,0.58 0.581,0.58z"/>
   <path class="fil22" d="M228.59 186.512l-0.408 0 0 0c-0.32,0 -0.581,-0.26 -0.581,-0.58l0 -0.564 1.57 0 0 0.564c0,0.32 -0.261,0.58 -0.581,0.58z"/>
   <path class="fil18" d="M235.041 186.512l-0.411 0c-0.371,0 -0.672,-0.301 -0.672,-0.674l0 -0.47 0.502 0 0 0.564c0,0.32 0.259,0.58 0.581,0.58z"/>
   <path class="fil22" d="M235.449 186.512l-0.408 0 0 0c-0.322,0 -0.581,-0.26 -0.581,-0.58l0 -0.564 1.57 0 0 0.564c0,0.32 -0.261,0.58 -0.581,0.58z"/>
   <path class="fil18" d="M241.9 186.512l-0.41 0c-0.371,0 -0.672,-0.301 -0.672,-0.674l0 -0.47 0.501 0 0 0.564c0,0.32 0.26,0.58 0.581,0.58z"/>
   <path class="fil22" d="M242.306 186.512l-0.406 0 0 0c-0.321,0 -0.581,-0.26 -0.581,-0.58l0 -0.564 1.568 0 0 0.564c0,0.32 -0.259,0.58 -0.581,0.58z"/>
   <path class="fil18" d="M248.758 186.512l-0.409 0c-0.373,0 -0.673,-0.301 -0.673,-0.674l0 -13.552c0,-0.371 0.3,-0.672 0.673,-0.672l0.725 0c0.371,0 0.673,0.301 0.673,0.672l0 0.151c0,-0.321 -0.261,-0.581 -0.581,-0.581l-0.408 0c-0.321,0 -0.582,0.26 -0.582,0.581l0 13.495c0,0.32 0.261,0.58 0.582,0.58z"/>
   <path class="fil22" d="M249.166 186.512l-0.408 0 0 0c-0.321,0 -0.582,-0.26 -0.582,-0.58l0 -13.495c0,-0.321 0.261,-0.581 0.582,-0.581l0.408 0c0.32,0 0.581,0.26 0.581,0.581l0 13.495c0,0.32 -0.261,0.58 -0.581,0.58z"/>
   <path class="fil18" d="M255.617 186.512l-0.411 0c-0.371,0 -0.672,-0.301 -0.672,-0.674l0 -13.552c0,-0.371 0.301,-0.672 0.672,-0.672l0.727 0c0.372,0 0.673,0.301 0.673,0.672l0 0.151c0,-0.321 -0.262,-0.581 -0.581,-0.581l-0.408 0c-0.322,0 -0.581,0.26 -0.581,0.581l0 13.495c0,0.32 0.259,0.58 0.581,0.58z"/>
   <path class="fil22" d="M256.025 186.512l-0.408 0 0 0c-0.322,0 -0.581,-0.26 -0.581,-0.58l0 -13.495c0,-0.321 0.259,-0.581 0.581,-0.581l0.408 0c0.319,0 0.581,0.26 0.581,0.581l0 13.495c0,0.32 -0.262,0.58 -0.581,0.58z"/>
   <path class="fil23" d="M261.796 173.597l0 10.901c0,0.92 -0.377,1.756 -0.986,2.361 -0.607,0.603 -1.445,0.978 -2.369,0.978l-53.761 0c-0.711,0 -1.374,-0.226 -1.918,-0.611 -0.557,-0.393 -0.989,-0.954 -1.222,-1.611 -0.065,-0.167 -0.112,-0.343 -0.145,-0.523 -0.037,-0.195 -0.053,-0.394 -0.053,-0.594l0 -10.901c0,-0.917 0.375,-1.753 0.981,-2.358 0.602,-0.605 1.437,-0.981 2.357,-0.981l53.761 0c0.197,0 0.387,0.016 0.574,0.049 0.185,0.032 0.372,0.085 0.563,0.159 0.129,0.049 0.257,0.111 0.385,0.163 0.413,0.201 0.779,0.493 1.072,0.849 0.289,0.351 0.505,0.763 0.626,1.213l0.083 0.371 0.017 0.101 0.035 0.434zm-1.491 10.901l0 -10.877 -0.025 -0.294 -0.057 -0.252c-0.065,-0.245 -0.182,-0.468 -0.335,-0.655 -0.153,-0.186 -0.351,-0.342 -0.577,-0.452l-0.291 -0.125c-0.081,-0.03 -0.168,-0.053 -0.26,-0.069 -0.099,-0.017 -0.205,-0.025 -0.319,-0.025l-53.761 0c-0.508,0 -0.97,0.208 -1.305,0.543 -0.336,0.332 -0.543,0.794 -0.543,1.305l0 10.901c0,0.118 0.009,0.231 0.028,0.335 0.013,0.088 0.038,0.174 0.069,0.252l0.015 0.035c0.128,0.363 0.367,0.673 0.673,0.889 0.3,0.212 0.668,0.337 1.063,0.337l53.761 0c0.518,0 0.985,-0.207 1.321,-0.541 0.335,-0.333 0.543,-0.796 0.543,-1.307z"/>
   <path class="fil23" d="M265.054 189.847l0 10.901c0,0.921 -0.376,1.756 -0.985,2.362 -0.607,0.602 -1.445,0.977 -2.368,0.977l-53.762 0c-0.71,0 -1.374,-0.226 -1.918,-0.61 -0.556,-0.393 -0.989,-0.954 -1.221,-1.612 -0.065,-0.166 -0.113,-0.342 -0.146,-0.522 -0.037,-0.196 -0.053,-0.394 -0.053,-0.595l0 -10.901c0,-0.917 0.375,-1.752 0.981,-2.357 0.603,-0.606 1.437,-0.982 2.357,-0.982l53.762 0c0.196,0 0.386,0.016 0.574,0.049 0.185,0.032 0.371,0.086 0.562,0.159 0.129,0.049 0.257,0.111 0.385,0.164 0.413,0.201 0.779,0.492 1.072,0.848 0.289,0.351 0.505,0.764 0.626,1.213l0.083 0.371 0.017 0.101 0.034 0.434zm-1.49 10.901l0 -10.876 -0.024 -0.295 -0.058 -0.252c-0.065,-0.245 -0.182,-0.468 -0.335,-0.654 -0.153,-0.187 -0.351,-0.342 -0.577,-0.452l-0.291 -0.125c-0.081,-0.03 -0.167,-0.054 -0.261,-0.07 -0.098,-0.017 -0.204,-0.025 -0.317,-0.025l-53.762 0c-0.508,0 -0.97,0.209 -1.305,0.543 -0.335,0.333 -0.543,0.795 -0.543,1.305l0 10.901c0,0.118 0.009,0.231 0.027,0.336 0.014,0.088 0.039,0.173 0.071,0.252l0.014 0.035c0.128,0.362 0.367,0.673 0.674,0.889 0.3,0.212 0.668,0.337 1.062,0.337l53.762 0c0.517,0 0.985,-0.208 1.32,-0.542 0.336,-0.333 0.543,-0.796 0.543,-1.307z"/>
   <path class="fil23" d="M272.407 205.792l0 10.901c0,0.92 -0.376,1.756 -0.985,2.361 -0.607,0.603 -1.445,0.978 -2.369,0.978l-53.761 0c-0.71,0 -1.374,-0.226 -1.918,-0.611 -0.556,-0.393 -0.989,-0.954 -1.221,-1.611 -0.065,-0.167 -0.113,-0.342 -0.146,-0.522 -0.037,-0.197 -0.053,-0.394 -0.053,-0.595l0 -10.901c0,-0.917 0.375,-1.752 0.981,-2.358 0.602,-0.606 1.437,-0.981 2.357,-0.981l53.761 0c0.197,0 0.387,0.016 0.575,0.049 0.184,0.032 0.371,0.085 0.562,0.159 0.129,0.048 0.257,0.11 0.385,0.163 0.413,0.202 0.779,0.492 1.072,0.848 0.289,0.351 0.505,0.764 0.625,1.214l0.084 0.37 0.017 0.102 0.034 0.434zm-1.49 10.901l0 -10.877 -0.024 -0.294 -0.058 -0.252c-0.065,-0.246 -0.182,-0.469 -0.335,-0.655 -0.154,-0.186 -0.351,-0.341 -0.577,-0.452l-0.291 -0.125c-0.081,-0.03 -0.167,-0.053 -0.261,-0.069 -0.098,-0.017 -0.204,-0.026 -0.318,-0.026l-53.761 0c-0.508,0 -0.97,0.209 -1.305,0.544 -0.336,0.332 -0.543,0.795 -0.543,1.305l0 10.901c0,0.118 0.009,0.231 0.027,0.335 0.014,0.088 0.038,0.174 0.071,0.252l0.014 0.035c0.128,0.362 0.367,0.673 0.674,0.89 0.299,0.212 0.668,0.336 1.062,0.336l53.761 0c0.518,0 0.986,-0.207 1.321,-0.541 0.336,-0.333 0.543,-0.796 0.543,-1.307z"/>
   <path class="fil23" d="M267.533 222.392l0 10.901c0,0.92 -0.377,1.755 -0.986,2.361 -0.607,0.603 -1.444,0.978 -2.368,0.978l-53.761 0c-0.711,0 -1.375,-0.226 -1.919,-0.611 -0.556,-0.393 -0.989,-0.954 -1.221,-1.611 -0.065,-0.167 -0.113,-0.342 -0.146,-0.523 -0.037,-0.196 -0.053,-0.394 -0.053,-0.594l0 -10.901c0,-0.917 0.376,-1.752 0.981,-2.358 0.602,-0.605 1.438,-0.981 2.358,-0.981l53.761 0c0.196,0 0.386,0.016 0.574,0.049 0.184,0.032 0.372,0.085 0.562,0.159 0.129,0.049 0.258,0.111 0.385,0.163 0.413,0.202 0.779,0.492 1.072,0.848 0.29,0.352 0.506,0.764 0.626,1.214l0.084 0.37 0.017 0.102 0.034 0.434zm-1.491 10.901l0 -10.877 -0.024 -0.294 -0.058 -0.252c-0.065,-0.245 -0.181,-0.469 -0.335,-0.655 -0.153,-0.186 -0.351,-0.342 -0.577,-0.451l-0.291 -0.126c-0.081,-0.03 -0.167,-0.053 -0.26,-0.069 -0.099,-0.017 -0.205,-0.025 -0.318,-0.025l-53.761 0c-0.509,0 -0.971,0.208 -1.306,0.543 -0.336,0.332 -0.542,0.794 -0.542,1.305l0 10.901c0,0.118 0.009,0.231 0.027,0.335 0.013,0.088 0.038,0.174 0.07,0.252l0.014 0.035c0.129,0.363 0.368,0.673 0.674,0.89 0.3,0.212 0.668,0.336 1.063,0.336l53.761 0c0.518,0 0.985,-0.207 1.32,-0.541 0.336,-0.333 0.543,-0.796 0.543,-1.307z"/>
   <path class="fil23" d="M192.356 206.029l0 10.901c0,0.919 -0.377,1.755 -0.986,2.36 -0.607,0.604 -1.444,0.978 -2.368,0.978l-53.761 0c-0.711,0 -1.374,-0.226 -1.918,-0.611 -0.557,-0.392 -0.989,-0.954 -1.222,-1.611 -0.065,-0.166 -0.113,-0.342 -0.145,-0.522 -0.037,-0.196 -0.054,-0.394 -0.054,-0.594l0 -10.901c0,-0.918 0.376,-1.753 0.981,-2.358 0.603,-0.606 1.438,-0.981 2.358,-0.981l53.761 0c0.196,0 0.387,0.016 0.574,0.048 0.185,0.032 0.372,0.085 0.563,0.16 0.128,0.048 0.257,0.11 0.385,0.163 0.412,0.201 0.779,0.492 1.072,0.848 0.289,0.351 0.505,0.763 0.625,1.213l0.084 0.37 0.017 0.103 0.034 0.434zm-1.49 10.901l0 -10.877 -0.025 -0.295 -0.057 -0.252c-0.066,-0.245 -0.182,-0.468 -0.335,-0.654 -0.154,-0.186 -0.352,-0.342 -0.578,-0.452l-0.29 -0.126c-0.081,-0.029 -0.168,-0.052 -0.261,-0.068 -0.099,-0.018 -0.205,-0.026 -0.318,-0.026l-53.761 0c-0.509,0 -0.971,0.208 -1.305,0.543 -0.336,0.332 -0.543,0.795 -0.543,1.306l0 10.901c0,0.117 0.009,0.23 0.027,0.334 0.013,0.088 0.038,0.174 0.07,0.253l0.015 0.035c0.128,0.362 0.367,0.672 0.673,0.889 0.3,0.212 0.668,0.336 1.063,0.336l53.761 0c0.518,0 0.985,-0.207 1.32,-0.54 0.336,-0.334 0.544,-0.797 0.544,-1.307z"/>
   <path class="fil23" d="M196.88 222.586l0 10.902c0,0.919 -0.377,1.755 -0.986,2.36 -0.606,0.603 -1.444,0.978 -2.369,0.978l-53.761 0c-0.71,0 -1.374,-0.226 -1.918,-0.611 -0.556,-0.393 -0.989,-0.954 -1.221,-1.611 -0.065,-0.167 -0.113,-0.342 -0.146,-0.522 -0.036,-0.196 -0.053,-0.394 -0.053,-0.594l0 -10.902c0,-0.917 0.376,-1.752 0.982,-2.358 0.601,-0.605 1.436,-0.981 2.356,-0.981l53.761 0c0.198,0 0.388,0.016 0.575,0.048 0.185,0.033 0.372,0.086 0.563,0.16 0.128,0.048 0.257,0.11 0.384,0.163 0.413,0.201 0.779,0.492 1.072,0.848 0.29,0.351 0.506,0.764 0.626,1.213l0.083 0.371 0.018 0.102 0.034 0.434zm-1.491 10.902l0 -10.878 -0.024 -0.294 -0.057 -0.253c-0.066,-0.245 -0.182,-0.467 -0.336,-0.653 -0.153,-0.187 -0.35,-0.342 -0.577,-0.453l-0.291 -0.125c-0.08,-0.03 -0.167,-0.053 -0.26,-0.068 -0.099,-0.018 -0.205,-0.026 -0.319,-0.026l-53.761 0c-0.508,0 -0.97,0.208 -1.305,0.542 -0.336,0.333 -0.542,0.796 -0.542,1.306l0 10.902c0,0.117 0.008,0.229 0.027,0.334 0.013,0.088 0.038,0.174 0.07,0.253l0.014 0.034c0.128,0.362 0.368,0.673 0.674,0.889 0.3,0.213 0.668,0.337 1.062,0.337l53.761 0c0.518,0 0.986,-0.207 1.322,-0.541 0.335,-0.333 0.542,-0.796 0.542,-1.306z"/>
   <path class="fil14" d="M246.881 197.336c0,21.684 -17.578,39.261 -39.261,39.261 -21.683,0 -39.262,-17.577 -39.262,-39.261 0,-21.683 17.579,-39.26 39.262,-39.26 21.683,0 39.261,17.577 39.261,39.26z"/>
   <path class="fil16" d="M170.866 211.165c-1.619,-4.301 -2.508,-8.961 -2.508,-13.829 0,-21.683 17.579,-39.26 39.262,-39.26 2.481,0 4.907,0.233 7.261,0.673l-44.015 52.416z"/>
   <path class="fil23" d="M335.786 221.741l0 10.901c0,0.92 -0.377,1.756 -0.986,2.361 -0.607,0.603 -1.445,0.977 -2.368,0.977l-53.761 0c-0.711,0 -1.374,-0.225 -1.919,-0.61 -0.556,-0.393 -0.989,-0.954 -1.221,-1.611 -0.065,-0.167 -0.113,-0.342 -0.145,-0.522 -0.038,-0.196 -0.054,-0.394 -0.054,-0.595l0 -10.901c0,-0.917 0.375,-1.752 0.981,-2.358 0.603,-0.606 1.438,-0.981 2.358,-0.981l53.761 0c0.196,0 0.387,0.016 0.574,0.048 0.185,0.033 0.372,0.086 0.563,0.16 0.128,0.048 0.257,0.11 0.385,0.163 0.412,0.201 0.778,0.492 1.072,0.848 0.288,0.351 0.504,0.764 0.625,1.213l0.083 0.371 0.018 0.102 0.034 0.434zm-1.49 10.901l0 -10.877 -0.025 -0.295 -0.058 -0.252c-0.065,-0.245 -0.181,-0.467 -0.335,-0.653 -0.153,-0.187 -0.351,-0.343 -0.577,-0.453l-0.291 -0.125c-0.08,-0.03 -0.167,-0.053 -0.26,-0.069 -0.099,-0.017 -0.205,-0.026 -0.318,-0.026l-53.761 0c-0.509,0 -0.971,0.209 -1.305,0.543 -0.336,0.333 -0.544,0.795 -0.544,1.306l0 10.901c0,0.117 0.009,0.23 0.028,0.335 0.013,0.088 0.038,0.173 0.07,0.253l0.015 0.034c0.128,0.362 0.366,0.673 0.673,0.889 0.3,0.213 0.668,0.337 1.063,0.337l53.761 0c0.517,0 0.985,-0.208 1.32,-0.541 0.336,-0.333 0.544,-0.796 0.544,-1.307z"/>
   <path class="fil21" d="M246.881 197.336c0,21.684 -17.578,39.261 -39.261,39.261 -10.911,0 -20.781,-4.451 -27.897,-11.637 6.69,5.292 15.144,8.451 24.336,8.451 21.683,0 39.262,-17.577 39.262,-39.261 0,-10.771 -4.339,-20.527 -11.362,-27.62 9.089,7.191 14.922,18.317 14.922,30.806z"/>
   <path class="fil23" d="M248 197.336c0,11.151 -4.52,21.245 -11.827,28.553 -7.308,7.307 -17.403,11.827 -28.553,11.827 -11.15,0 -21.246,-4.52 -28.553,-11.827 -7.308,-7.308 -11.827,-17.402 -11.827,-28.553 0,-11.15 4.519,-21.245 11.827,-28.552 7.307,-7.306 17.403,-11.826 28.553,-11.826 11.15,0 21.245,4.52 28.553,11.826 7.307,7.307 11.827,17.402 11.827,28.552zm-13.409 26.971c6.903,-6.901 11.172,-16.438 11.172,-26.971 0,-10.532 -4.269,-20.068 -11.172,-26.97 -6.902,-6.903 -16.438,-11.172 -26.971,-11.172 -10.533,0 -20.069,4.269 -26.972,11.172 -6.903,6.902 -11.172,16.438 -11.172,26.97 0,10.533 4.27,20.07 11.172,26.971 6.902,6.903 16.439,11.173 26.972,11.173 10.533,0 20.069,-4.27 26.971,-11.173z"/>
   <path class="fil18" d="M242.181 197.336c0,19.088 -15.474,34.561 -34.561,34.561 -19.088,0 -34.562,-15.473 -34.562,-34.561 0,-19.086 15.474,-34.56 34.562,-34.56 19.087,0 34.561,15.474 34.561,34.56z"/>
   <path class="fil19" d="M241.312 197.735c0,18.123 -14.694,32.816 -32.817,32.816 -18.123,0 -32.816,-14.693 -32.816,-32.816 0,-18.124 14.693,-32.817 32.816,-32.817 18.123,0 32.817,14.693 32.817,32.817z"/>
   <path class="fil24" d="M176.396 204.579c-0.468,-2.208 -0.717,-4.497 -0.717,-6.844 0,-18.124 14.693,-32.817 32.817,-32.817 0.397,0 0.791,0.009 1.185,0.023l-33.285 39.638z"/>
   <path class="fil25" d="M194.49 184.953l0 8.494 5.232 0c0.675,0 1.283,-0.103 1.821,-0.31 0.533,-0.204 1.028,-0.519 1.479,-0.942l0.005 -0.005c0.437,-0.408 0.763,-0.863 0.978,-1.362 0.214,-0.497 0.322,-1.056 0.322,-1.673 0,-0.565 -0.1,-1.087 -0.299,-1.565 -0.204,-0.49 -0.517,-0.952 -0.937,-1.383 -0.411,-0.423 -0.87,-0.737 -1.373,-0.944 -0.505,-0.207 -1.081,-0.31 -1.728,-0.31l-5.5 0zm-1.386 28.081l-4.113 0c-0.766,0 -1.387,-0.621 -1.387,-1.387l0 -32.016c0,-0.765 0.621,-1.387 1.387,-1.387l10.909 0c1.551,0 3.002,0.262 4.35,0.786 1.351,0.524 2.579,1.305 3.686,2.344 1.111,1.043 1.951,2.221 2.516,3.529 0.466,1.078 0.741,2.227 0.824,3.447l3.092 0c0.708,0 1.291,0.531 1.376,1.216 0.382,-0.27 0.794,-0.518 1.232,-0.745 0.769,-0.397 1.574,-0.694 2.415,-0.891 0.842,-0.196 1.717,-0.295 2.623,-0.295 1.645,0 3.172,0.327 4.581,0.979 1.395,0.647 2.658,1.611 3.786,2.891l0.016 0.018c1.134,1.271 1.987,2.673 2.558,4.204 0.575,1.544 0.864,3.2 0.864,4.965 0,1.78 -0.288,3.443 -0.864,4.987 -0.575,1.541 -1.432,2.944 -2.569,4.199 -1.126,1.278 -2.389,2.242 -3.791,2.891 -1.409,0.653 -2.937,0.98 -4.581,0.98 -0.906,0 -1.781,-0.099 -2.623,-0.295 -0.841,-0.196 -1.648,-0.495 -2.415,-0.89 -0.367,-0.19 -0.715,-0.395 -1.043,-0.616l0 9.358c0,0.766 -0.621,1.386 -1.386,1.386l-4.115 0c-0.765,0 -1.386,-0.62 -1.386,-1.386l0 -8.272 -2.751 0c-0.516,0 -0.966,-0.283 -1.205,-0.701l-8.164 -12.267 -2.436 0 0 11.581c0,0.766 -0.62,1.387 -1.386,1.387zm15.942 -17.401l-0.242 0.295c-0.819,0.972 -1.754,1.773 -2.8,2.401 -0.53,0.318 -1.086,0.59 -1.667,0.817l4.709 6.817 0 -10.33zm12.297 11.587c1.558,0 2.869,-0.592 3.934,-1.775l0.046 -0.048c0.525,-0.582 0.922,-1.25 1.188,-2.002 0.28,-0.792 0.421,-1.693 0.421,-2.703 0,-0.995 -0.141,-1.889 -0.421,-2.681 -0.272,-0.77 -0.685,-1.463 -1.234,-2.072 -0.541,-0.601 -1.137,-1.049 -1.786,-1.341 -0.642,-0.289 -1.358,-0.434 -2.148,-0.434 -0.809,0 -1.54,0.145 -2.186,0.434 -0.648,0.289 -1.243,0.732 -1.783,1.33 -0.541,0.615 -0.945,1.307 -1.21,2.071 -0.273,0.789 -0.41,1.688 -0.41,2.693 0,1.01 0.139,1.919 0.416,2.726 0.269,0.781 0.67,1.476 1.204,2.083l0.019 0.022c1.058,1.13 2.376,1.697 3.95,1.697z"/>
   <path class="fil26" d="M193.404 183.6l0 8.495 5.231 0c0.675,0 1.283,-0.104 1.822,-0.311 0.533,-0.204 1.027,-0.519 1.479,-0.942l0.005 -0.005c0.437,-0.408 0.763,-0.863 0.978,-1.362 0.214,-0.498 0.322,-1.056 0.322,-1.673 0,-0.565 -0.101,-1.087 -0.3,-1.565 -0.204,-0.49 -0.517,-0.952 -0.937,-1.383 -0.41,-0.422 -0.869,-0.737 -1.372,-0.944 -0.505,-0.207 -1.082,-0.31 -1.728,-0.31l-5.5 0zm-1.387 28.081l-4.113 0c-0.766,0 -1.387,-0.621 -1.387,-1.387l0 -32.016c0,-0.765 0.621,-1.387 1.387,-1.387l10.91 0c1.55,0 3.002,0.263 4.349,0.786 1.351,0.524 2.58,1.305 3.686,2.344 1.112,1.043 1.951,2.221 2.516,3.529 0.466,1.078 0.741,2.227 0.825,3.447l3.091 0c0.708,0 1.292,0.531 1.376,1.216 0.383,-0.27 0.794,-0.518 1.233,-0.745 0.768,-0.397 1.574,-0.694 2.414,-0.891 0.843,-0.197 1.718,-0.295 2.624,-0.295 1.644,0 3.172,0.327 4.581,0.979 1.395,0.647 2.657,1.611 3.786,2.891l0.016 0.019c1.133,1.27 1.987,2.672 2.557,4.203 0.575,1.543 0.864,3.2 0.864,4.965 0,1.78 -0.287,3.443 -0.864,4.987 -0.574,1.541 -1.431,2.944 -2.569,4.199 -1.125,1.278 -2.389,2.242 -3.79,2.891 -1.41,0.653 -2.937,0.98 -4.581,0.98 -0.906,0 -1.781,-0.099 -2.624,-0.296 -0.84,-0.195 -1.647,-0.494 -2.414,-0.89 -0.368,-0.189 -0.715,-0.394 -1.043,-0.615l0 9.358c0,0.766 -0.621,1.386 -1.387,1.386l-4.114 0c-0.766,0 -1.387,-0.62 -1.387,-1.386l0 -8.272 -2.75 0c-0.516,0 -0.967,-0.282 -1.205,-0.701l-8.165 -12.267 -2.435 0 0 11.581c0,0.766 -0.621,1.387 -1.387,1.387zm15.942 -17.401l-0.241 0.295c-0.819,0.972 -1.754,1.773 -2.801,2.401 -0.53,0.317 -1.086,0.59 -1.667,0.816l4.709 6.818 0 -10.33zm12.298 11.587c1.557,0 2.869,-0.592 3.934,-1.775l0.045 -0.048c0.526,-0.582 0.923,-1.25 1.189,-2.002 0.28,-0.792 0.421,-1.693 0.421,-2.703 0,-0.995 -0.141,-1.889 -0.421,-2.681 -0.272,-0.771 -0.685,-1.462 -1.234,-2.072 -0.541,-0.601 -1.138,-1.049 -1.786,-1.341 -0.642,-0.289 -1.359,-0.434 -2.148,-0.434 -0.81,0 -1.54,0.145 -2.187,0.434 -0.648,0.289 -1.243,0.732 -1.782,1.33 -0.541,0.615 -0.945,1.306 -1.21,2.072 -0.273,0.788 -0.41,1.686 -0.41,2.692 0,1.01 0.139,1.919 0.416,2.725 0.268,0.782 0.67,1.477 1.204,2.084l0.018 0.022c1.059,1.13 2.376,1.697 3.951,1.697z"/>
   <path class="fil27" d="M193.404 183.6l0 0.725 -6.887 8.201 0 -14.248c0,-0.765 0.621,-1.387 1.387,-1.387l10.91 0c0.273,0 0.544,0.009 0.811,0.025l-5.612 6.684 -0.609 0z"/>
   <path class="fil28" d="M241.312 197.735c0,18.122 -14.694,32.816 -32.816,32.816 -3.103,0 -6.105,-0.43 -8.95,-1.235 1.171,0.114 2.358,0.174 3.559,0.174 20.027,0 36.263,-16.238 36.263,-36.263 0,-3.41 -0.471,-6.708 -1.35,-9.835 2.109,4.332 3.294,9.199 3.294,14.343z"/>
   <path class="fil23" d="M243.093 197.336c0,9.796 -3.971,18.664 -10.39,25.083 -6.42,6.419 -15.288,10.39 -25.083,10.39 -9.795,0 -18.664,-3.971 -25.083,-10.39 -6.419,-6.419 -10.39,-15.288 -10.39,-25.083 0,-9.794 3.971,-18.663 10.39,-25.082 6.419,-6.419 15.288,-10.39 25.083,-10.39 9.794,0 18.663,3.971 25.083,10.39 6.419,6.419 10.39,15.288 10.39,25.082zm-11.679 23.794c6.089,-6.089 9.855,-14.501 9.855,-23.794 0,-9.291 -3.766,-17.705 -9.855,-23.793 -6.09,-6.089 -14.502,-9.855 -23.794,-9.855 -9.292,0 -17.705,3.766 -23.794,9.855 -6.09,6.088 -9.856,14.502 -9.856,23.793 0,9.292 3.766,17.705 9.856,23.794 6.088,6.089 14.502,9.856 23.794,9.856 9.292,0 17.705,-3.767 23.794,-9.856z"/>
  </g>
 </g>
</svg>
