<?xml version="1.0" encoding="UTF-8"?>
<!DOCTYPE svg PUBLIC "-//W3C//DTD SVG 1.1//EN" "http://www.w3.org/Graphics/SVG/1.1/DTD/svg11.dtd">
<!-- Creator: CorelDRAW 2018 (64-Bit Evaluation Version) -->
<svg xmlns="http://www.w3.org/2000/svg" xml:space="preserve" width="360px" height="240px" version="1.1" style="shape-rendering:geometricPrecision; text-rendering:geometricPrecision; image-rendering:optimizeQuality; fill-rule:evenodd; clip-rule:evenodd"
viewBox="0 0 360 240"
 xmlns:xlink="http://www.w3.org/1999/xlink">
 <defs>
  <style type="text/css">
   <![CDATA[
    .fil3 {fill:#01AFE4}
    .fil0 {fill:#1A1A1A}
    .fil6 {fill:#E6E6E6}
    .fil5 {fill:white}
    .fil7 {fill:black;fill-rule:nonzero}
    .fil2 {fill:#1A1A1A;fill-rule:nonzero}
    .fil1 {fill:white;fill-rule:nonzero}
    .fil4 {fill:white;fill-opacity:0.301961}
   ]]>
  </style>
 </defs>
 <g id="Layer_x0020_1">
  <metadata id="CorelCorpID_0Corel-Layer"/>
  <g id="_3054774338400">
   <path class="fil0" d="M42.026 195.337l275.948 0c2.314,0 4.19,1.876 4.19,4.19l0 31.777c0,2.314 -1.876,4.19 -4.19,4.19l-275.948 0c-2.314,0 -4.19,-1.876 -4.19,-4.19l0 -31.777c0,-2.314 1.876,-4.19 4.19,-4.19z"/>
   <path class="fil1" d="M103.607 9.762l152.782 0c1.692,0 3.133,0.674 4.22,1.761l0 0.002c1.153,1.153 1.905,2.774 2.129,4.545l7.002 55.572c0.028,0.22 0.041,0.431 0.041,0.63 0,1.48 -0.659,2.821 -1.692,3.837 -1.021,1.005 -2.413,1.693 -3.89,1.879 -0.275,0.035 -0.545,0.053 -0.808,0.053l-166.787 0c-0.269,0 -0.538,-0.018 -0.805,-0.051l-0.001 -0.002c-1.478,-0.186 -2.87,-0.874 -3.891,-1.878 -1.032,-1.016 -1.691,-2.358 -1.691,-3.838l-0.002 0c0,-0.206 0.013,-0.415 0.04,-0.628l0.001 -0.002 7.003 -55.572c0.223,-1.772 0.975,-3.394 2.127,-4.547 1.088,-1.087 2.529,-1.761 4.222,-1.761z"/>
   <path class="fil2" d="M103.607 6.943l152.783 0c1.195,0 2.322,0.239 3.354,0.672 1.095,0.456 2.06,1.118 2.859,1.917 0.785,0.785 1.454,1.76 1.957,2.838 0.482,1.032 0.818,2.174 0.964,3.348l7.002 55.582 0.073 0.972c0,1.121 -0.246,2.193 -0.679,3.175 -0.442,1.001 -1.088,1.906 -1.863,2.665 -0.729,0.719 -1.597,1.327 -2.536,1.783 -0.912,0.44 -1.923,0.746 -2.968,0.879 -24.482,2.719 -145.343,2.972 -169.109,0 -1.045,-0.133 -2.056,-0.439 -2.968,-0.879 -0.936,-0.452 -1.804,-1.061 -2.539,-1.783 -0.772,-0.762 -1.418,-1.664 -1.857,-2.669l-0.15 -0.352 -0.536 0 0 -2.819 0.063 -0.972 7.016 -55.572c0.146,-1.184 0.475,-2.322 0.961,-3.358 0.503,-1.078 1.165,-2.046 1.956,-2.838 0.802,-0.802 1.764,-1.461 2.859,-1.917 1.031,-0.433 2.16,-0.672 3.358,-0.672zm152.783 5.637l-152.783 0c-0.45,0 -0.855,0.083 -1.202,0.226 -0.366,0.153 -0.715,0.399 -1.028,0.712 -0.356,0.356 -0.649,0.779 -0.858,1.228 -0.237,0.506 -0.403,1.082 -0.476,1.677 -1.877,14.889 -7.008,42.269 -7.008,55.849 0,0.316 0.07,0.625 0.193,0.905 0.14,0.339 0.372,0.656 0.649,0.929 0.289,0.285 0.652,0.535 1.041,0.725 0.37,0.176 0.769,0.306 1.161,0.362 29.716,2.886 138.299,2.989 167.808,0.004 0.4,-0.053 0.815,-0.187 1.192,-0.366 0.386,-0.186 0.748,-0.44 1.038,-0.725 0.279,-0.277 0.512,-0.593 0.652,-0.916 0.123,-0.293 0.193,-0.599 0.193,-0.918l-7.008 -55.849c-0.073,-0.592 -0.243,-1.171 -0.479,-1.677 -0.21,-0.449 -0.506,-0.875 -0.859,-1.228 -0.313,-0.313 -0.665,-0.562 -1.028,-0.712 -0.346,-0.143 -0.752,-0.226 -1.198,-0.226z"/>
   <polygon class="fil3" points="105.416,71.466 249.639,71.466 245.155,15.129 111.02,15.129 "/>
   <path class="fil4" d="M105.416 71.466l144.223 0 -4.482 -56.337 -0.188 0c-8.015,7.205 -18.123,14.421 -30.083,21.214 -37.375,21.231 -81.278,31.787 -108.72,27.576l-0.75 7.547z"/>
   <rect class="fil5" x="7.49" y="95.056" width="345.021" height="104.468" rx="8.148" ry="8.148"/>
   <path class="fil6" d="M15.638 95.058l30.885 0c-2.719,16.717 -4.171,34.209 -4.171,52.232 0,18.025 1.452,35.519 4.171,52.236l-30.885 0c-4.482,0 -8.149,-3.666 -8.149,-8.148l0 -88.172c0,-4.482 3.667,-8.148 8.149,-8.148zm297.839 0l30.885 0c4.482,0 8.149,3.666 8.149,8.148l0 88.172c0,4.482 -3.667,8.148 -8.149,8.148l-30.885 0c2.719,-16.717 4.171,-34.211 4.171,-52.236 0,-18.023 -1.452,-35.515 -4.171,-52.232z"/>
   <path class="fil0" d="M118.501 64.778l122.998 0c2.447,0 4.447,3.35 4.447,7.445l0 23.995 -131.892 0 0 -23.995c0,-4.095 2.001,-7.445 4.447,-7.445z"/>
   <path class="fil7" d="M15.638 92.058l328.727 0c3.068,0 5.857,1.255 7.874,3.272 2.018,2.032 3.272,4.815 3.272,7.877l0 88.174c0,3.067 -1.255,5.856 -3.272,7.873 -2.017,2.018 -4.807,3.272 -7.874,3.272l-328.727 0c-3.069,0 -5.858,-1.254 -7.876,-3.272 -2.017,-2.03 -3.273,-4.816 -3.273,-7.873l0 -88.174c0,-3.07 1.255,-5.86 3.272,-7.877 2.032,-2.018 4.815,-3.272 7.877,-3.272zm328.727 6l-328.727 0c-1.417,0 -2.706,0.579 -3.64,1.509 -0.927,0.939 -1.509,2.227 -1.509,3.64l0 88.174c0,1.419 0.577,2.705 1.504,3.631 0.945,0.933 2.233,1.514 3.645,1.514l328.727 0c1.41,0 2.698,-0.581 3.631,-1.514 0.933,-0.933 1.515,-2.221 1.515,-3.631l0 -88.174c0,-1.417 -0.579,-2.706 -1.509,-3.64 -0.939,-0.928 -2.226,-1.509 -3.637,-1.509z"/>
  </g>
 </g>
</svg>
