<?xml version="1.0" encoding="UTF-8"?>
<!DOCTYPE svg PUBLIC "-//W3C//DTD SVG 1.1//EN" "http://www.w3.org/Graphics/SVG/1.1/DTD/svg11.dtd">
<!-- Creator: CorelDRAW 2018 (64-Bit Evaluation Version) -->
<svg xmlns="http://www.w3.org/2000/svg" xml:space="preserve" width="360px" height="240px" version="1.1" style="shape-rendering:geometricPrecision; text-rendering:geometricPrecision; image-rendering:optimizeQuality; fill-rule:evenodd; clip-rule:evenodd"
viewBox="0 0 360 240"
 xmlns:xlink="http://www.w3.org/1999/xlink">
 <defs>
  <style type="text/css">
   <![CDATA[
    .fil0 {fill:#E02638}
    .fil1 {fill:#D11024;fill-rule:nonzero}
    .fil2 {fill:white;fill-rule:nonzero}
   ]]>
  </style>
 </defs>
 <g id="Layer_x0020_1">
  <metadata id="CorelCorpID_0Corel-Layer"/>
  <circle class="fil0" cx="180" cy="120" r="114"/>
  <path class="fil1" d="M202.874 73.059c7.162,1.364 13.956,3.769 20.212,7.047 6.689,3.502 12.728,7.948 17.92,13.141 6.74,6.74 12.194,14.841 15.934,23.874 3.597,8.68 5.583,18.162 5.583,28.063 0,9.901 -1.986,19.382 -5.583,28.063 -3.74,9.033 -9.194,17.134 -15.934,23.874 -6.741,6.741 -14.842,12.195 -23.875,15.936 -8.681,3.596 -18.162,5.582 -28.063,5.582 -9.901,0 -19.383,-1.986 -28.063,-5.582 -9.033,-3.741 -17.134,-9.195 -23.874,-15.936 -6.74,-6.74 -12.194,-14.841 -15.935,-23.874 -3.596,-8.681 -5.583,-18.162 -5.583,-28.063 0,-3.214 0.22,-6.435 0.643,-9.639 0.718,-7.774 7.255,-13.86 15.216,-13.86 8.083,0 14.701,6.281 15.241,14.23l0.273 0.011c-0.085,0.391 -0.164,0.783 -0.238,1.177 -0.011,1.37 -0.206,2.699 -0.556,3.961 -0.123,1.33 -0.184,2.705 -0.184,4.12 0,5.88 1.153,11.452 3.243,16.496 2.162,5.222 5.369,9.959 9.365,13.956 3.997,3.997 8.734,7.203 13.956,9.365 5.044,2.09 10.616,3.243 16.496,3.243 5.88,0 11.452,-1.153 16.496,-3.243 5.222,-2.162 9.959,-5.368 13.956,-9.365 3.997,-3.997 7.203,-8.734 9.365,-13.956 2.09,-5.044 3.243,-10.616 3.243,-16.496 0,-5.88 -1.153,-11.452 -3.243,-16.496 -2.162,-5.222 -5.368,-9.959 -9.365,-13.956 -2.838,-2.838 -6.016,-5.261 -9.436,-7.172 -3.373,-1.888 -7.081,-3.34 -11.032,-4.277 -0.237,-0.057 -0.471,-0.122 -0.698,-0.2l-28.567 0 28.802 24.83c3.905,3.378 4.332,9.286 0.953,13.192 -3.376,3.905 -9.286,4.332 -13.192,0.953l-54.42 -46.915c-3.905,-3.378 -4.331,-9.288 -0.953,-13.191 0.399,-0.463 0.832,-0.876 1.292,-1.238l54.079 -46.631c3.905,-3.38 9.815,-2.953 13.192,0.952 1.529,1.768 2.28,3.951 2.279,6.119l0.031 0 0 14.189 0 17.502c0.35,0.048 0.691,0.12 1.024,0.214z"/>
  <path class="fil2" d="M193.805 62.836c7.162,1.364 13.956,3.77 20.211,7.047 6.69,3.501 12.729,7.949 17.92,13.141 6.741,6.74 12.194,14.841 15.935,23.874 3.596,8.68 5.583,18.163 5.583,28.063 0,9.901 -1.987,19.383 -5.583,28.064 -3.741,9.033 -9.194,17.134 -15.935,23.874 -6.74,6.74 -14.841,12.194 -23.874,15.935 -8.681,3.596 -18.163,5.582 -28.063,5.582 -9.901,0 -19.383,-1.986 -28.063,-5.582 -9.033,-3.741 -17.135,-9.195 -23.875,-15.935 -6.74,-6.74 -12.194,-14.841 -15.934,-23.874 -3.596,-8.681 -5.583,-18.163 -5.583,-28.064 0,-3.214 0.22,-6.435 0.643,-9.639 0.718,-7.774 7.255,-13.86 15.216,-13.86 8.083,0 14.7,6.281 15.24,14.23l0.274 0.012c-0.085,0.39 -0.165,0.782 -0.238,1.177 -0.012,1.37 -0.206,2.698 -0.556,3.961 -0.123,1.33 -0.184,2.705 -0.184,4.119 0,5.881 1.153,11.452 3.243,16.496 2.161,5.222 5.368,9.959 9.365,13.956 3.997,3.997 8.734,7.204 13.956,9.365 5.044,2.09 10.616,3.243 16.496,3.243 5.88,0 11.452,-1.153 16.496,-3.243 5.221,-2.161 9.959,-5.368 13.956,-9.365 3.997,-3.997 7.203,-8.734 9.365,-13.956 2.09,-5.044 3.243,-10.615 3.243,-16.496 0,-5.88 -1.153,-11.452 -3.243,-16.495 -2.162,-5.222 -5.368,-9.96 -9.365,-13.956 -2.838,-2.838 -6.017,-5.261 -9.436,-7.173 -3.373,-1.888 -7.081,-3.34 -11.032,-4.276 -0.238,-0.057 -0.471,-0.123 -0.698,-0.201l-28.567 0 28.802 24.831c3.905,3.377 4.331,9.286 0.952,13.192 -3.375,3.905 -9.286,4.331 -13.191,0.952l-54.421 -46.915c-3.904,-3.377 -4.33,-9.287 -0.953,-13.191 0.4,-0.462 0.832,-0.875 1.293,-1.237l54.079 -46.632c3.904,-3.379 9.814,-2.953 13.192,0.953 1.528,1.768 2.28,3.95 2.278,6.119l0.032 0 0 14.188 0 17.502c0.349,0.048 0.691,0.12 1.024,0.214z"/>
 </g>
</svg>
